<svg xmlns="http://www.w3.org/2000/svg" xmlns:xlink="http://www.w3.org/1999/xlink" width="211.063" height="207.12" viewBox="0 0 211.063 207.12">
  <defs>
    <style>
      .cls-1 {
        stroke: #e4dede;
        fill-rule: evenodd;
        fill: url(#pattern);
      }
    </style>
    <clipPath id="svgPath">

     <path id="_1801" data-name="1801" class="cls-1" d="M1222.817,183.457a44.492,44.492,0,0,0-4.439,3.329c-28.832,26.613-52.065,57.324-67.781,93.434-1.77,4.1-3.579,5.049-7.778,3.119-38.461-17.661-76.208-36.645-112.29-59.375-4.526-2.851-9.284-5.934-14-9.086-3.659-2.459-4.489-5.089-3.45-9.417a810.761,810.761,0,0,1,39.7-122.626c2.4-5.818,4.459-6.038,8.8-1.61,21.594,22.064,47.7,37.64,75.309,50.8,27.773,13.236,55.076,27.272,80.188,45.177,2.009,1.45,4.559,2.329,5.749,6.258" transform="translate(-1012.233 -77.662)"/>
    </clipPath>
  </defs>
 
</svg>
