<svg xmlns="http://www.w3.org/2000/svg" xmlns:xlink="http://www.w3.org/1999/xlink" width="1920" height="338" viewBox="0 0 1920 338">
  <defs>
    <clipPath id="clip-path">
      <rect id="Rectangle_165" data-name="Rectangle 165" width="1920" height="338" transform="translate(-235 2451)" fill="none"/>
    </clipPath>
  </defs>
  <g id="Mask_Group_6" data-name="Mask Group 6" transform="translate(235 -2451)" clip-path="url(#clip-path)">
    <g id="Bottom" transform="translate(-3 -2894)">
      <line id="Line_5" data-name="Line 5" y2="120.636" transform="translate(1377.138 5471.723)" fill="none" stroke="#1d6320" stroke-miterlimit="10" stroke-width="1"/>
      <path id="Path_357" data-name="Path 357" d="M637.624,525.042a14.194,14.194,0,1,0,14.2-14.2,14.2,14.2,0,0,0-14.2,14.2" transform="translate(725.005 4922.33)" fill="#85be1a"/>
      <g id="Group_496" data-name="Group 496" transform="translate(491.261 4846.079)">
        <path id="Path_337" data-name="Path 337" d="M619.523,456.147a34.186,34.186,0,0,1-18.3-5.651c-1.138-.736-1.3-2-1.44-3.179a19.618,19.618,0,0,1,4.414-14.852,24.656,24.656,0,0,1,10.865-7.682,189.728,189.728,0,0,0,22.407-9.882,41.634,41.634,0,0,0,10.345-7.485c.458-.476.547-.13.711.189a33.311,33.311,0,0,1,3.825,12.632,31.789,31.789,0,0,1-6.534,22.89,33.555,33.555,0,0,1-20.619,12.458c-.941.189-1.9.245-2.845.408s-1.863.044-2.826.155" transform="translate(-158.841 136.569)" fill="#1d6320" fill-rule="evenodd"/>
        <path id="Path_338" data-name="Path 338" d="M603.5,447.541a30.027,30.027,0,0,1-5.172-5.783,32.1,32.1,0,0,1-5.516-15.531,32.979,32.979,0,0,1,3.8-18.565c.178-.344.261-.752.761-.234,3.51,3.645,7.8,6.177,12.238,8.494,4.126,2.151,8.4,3.981,12.831,5.835l-2.277.891c-5.949,2.34-10.809,6-13.946,11.681a22.125,22.125,0,0,0-2.721,13.212" transform="translate(-165.337 136.57)" fill="#447d1d" fill-rule="evenodd"/>
        <path id="Path_339" data-name="Path 339" d="M635.245,414.449c-.014.348-.358.433-.589.587a77.144,77.144,0,0,1-10.129,5.6c-3.51,1.668-7.091,3.175-10.69,4.642a1.459,1.459,0,0,1-1.241,0c-1.859-.806-3.72-1.6-5.61-2.331-.68-.261-.674-.53-.4-1.123a26.3,26.3,0,0,1,9.215-10.6,45.114,45.114,0,0,1,6.778-3.854,27.071,27.071,0,0,0,8.057-5.3c.307-.311.474-.383.671.1a72.2,72.2,0,0,1,3.863,12.013c.019.081.045.158.078.269" transform="translate(-152.52 131.57)" fill="#64a01d" fill-rule="evenodd"/>
        <path id="Path_340" data-name="Path 340" d="M618.58,411.886a5.013,5.013,0,0,0-.423.317,26.459,26.459,0,0,0-6.465,8.915c-.17.39-.344.481-.744.3a86.68,86.68,0,0,1-12.052-6.534.722.722,0,0,1-.327-.9,77.231,77.231,0,0,1,3.786-11.7c.232-.555.425-.576.841-.153a24.6,24.6,0,0,0,7.186,4.847,50.193,50.193,0,0,1,7.651,4.31c.189.139.433.224.547.6" transform="translate(-159.871 131.586)" fill="#85be1a" fill-rule="evenodd"/>
        <path id="Path_341" data-name="Path 341" d="M614.981,396.921c2.089,3.218,4.785,5.723,7.336,8.355.877.9,1.7,1.855,2.6,2.739.526.522.495.8-.182,1.125a58.635,58.635,0,0,0-7.1,3.776c-.775.514-1.565,1.011-2.3,1.577a.609.609,0,0,1-.864,0,45.491,45.491,0,0,0-9.029-5.168c-.174-.079-.338-.178-.51-.261-.385-.187-.524-.358-.141-.752,1.882-1.948,3.711-3.948,5.61-5.883a34.779,34.779,0,0,0,4.582-5.51" transform="translate(-154.245 127)" fill="#afd53d" fill-rule="evenodd"/>
        <path id="Path_342" data-name="Path 342" d="M730.2,531.44a18.827,18.827,0,0,1-10.089-3.113,2.161,2.161,0,0,1-.794-1.753,10.813,10.813,0,0,1,2.433-8.187,13.574,13.574,0,0,1,5.991-4.236,104.5,104.5,0,0,0,12.35-5.448,22.946,22.946,0,0,0,5.7-4.122c.253-.263.3-.075.39.1a18.366,18.366,0,0,1,2.11,6.963,17.526,17.526,0,0,1-3.6,12.618,18.505,18.505,0,0,1-11.368,6.869c-.516.1-1.047.133-1.567.222s-1.028.027-1.558.085" transform="translate(-537.595 100.286)" fill="#1d6320" fill-rule="evenodd"/>
        <path id="Path_343" data-name="Path 343" d="M721.371,526.7a16.528,16.528,0,0,1-2.851-3.187,17.738,17.738,0,0,1-3.042-8.562,18.181,18.181,0,0,1,2.1-10.233c.1-.191.143-.416.419-.128a25.331,25.331,0,0,0,6.745,4.679c2.275,1.187,4.63,2.2,7.073,3.218-.46.18-.858.334-1.254.491a14.362,14.362,0,0,0-7.688,6.439,12.2,12.2,0,0,0-1.5,7.282" transform="translate(-541.177 100.288)" fill="#447d1d" fill-rule="evenodd"/>
        <path id="Path_344" data-name="Path 344" d="M738.87,508.457c-.01.191-.2.238-.325.323a42.817,42.817,0,0,1-5.585,3.088c-1.934.918-3.908,1.751-5.891,2.559a.8.8,0,0,1-.686,0c-1.022-.444-2.049-.883-3.092-1.285-.375-.145-.371-.294-.222-.621a14.488,14.488,0,0,1,5.081-5.844,24.742,24.742,0,0,1,3.736-2.126,14.9,14.9,0,0,0,4.443-2.922c.166-.17.259-.211.367.054a39.8,39.8,0,0,1,2.132,6.625,1.273,1.273,0,0,0,.042.147" transform="translate(-534.111 97.53)" fill="#64a01d" fill-rule="evenodd"/>
        <path id="Path_345" data-name="Path 345" d="M729.682,507.042a2.389,2.389,0,0,0-.232.176,14.562,14.562,0,0,0-3.566,4.915c-.095.215-.189.265-.41.164a47.687,47.687,0,0,1-6.641-3.6.4.4,0,0,1-.184-.495,42.855,42.855,0,0,1,2.089-6.449c.126-.305.234-.317.462-.085a13.621,13.621,0,0,0,3.962,2.673,27.721,27.721,0,0,1,4.217,2.375c.1.075.24.124.3.329" transform="translate(-538.163 97.54)" fill="#85be1a" fill-rule="evenodd"/>
        <path id="Path_346" data-name="Path 346" d="M727.7,498.794a31.13,31.13,0,0,0,4.045,4.605c.483.5.939,1.022,1.432,1.509.29.288.275.441-.1.618a32.588,32.588,0,0,0-3.916,2.083c-.427.282-.862.559-1.268.87a.338.338,0,0,1-.477,0,24.992,24.992,0,0,0-4.977-2.849c-.1-.042-.187-.1-.282-.143-.213-.1-.288-.2-.077-.416,1.038-1.074,2.045-2.176,3.092-3.243a19.063,19.063,0,0,0,2.526-3.036" transform="translate(-535.062 95.012)" fill="#afd53d" fill-rule="evenodd"/>
        <line id="Line_4" data-name="Line 4" y2="177" transform="translate(460.657 603.421)" fill="none" stroke="#1d6320" stroke-miterlimit="10" stroke-width="1"/>
        <line id="Line_5-2" data-name="Line 5" y2="120.636" transform="translate(37.79 659.644)" fill="none" stroke="#1d6320" stroke-miterlimit="10" stroke-width="1"/>
        <line id="Line_6" data-name="Line 6" y2="134.381" transform="translate(192.604 645.898)" fill="none" stroke="#1d6320" stroke-miterlimit="10" stroke-width="1"/>
        <path id="Path_352" data-name="Path 352" d="M702.092,498.923a28.414,28.414,0,0,1-15.227-4.7,3.264,3.264,0,0,1-1.2-2.646,16.326,16.326,0,0,1,3.67-12.355,20.515,20.515,0,0,1,9.043-6.393,157.43,157.43,0,0,0,18.644-8.223,34.621,34.621,0,0,0,8.606-6.225c.381-.4.454-.11.591.157a27.724,27.724,0,0,1,3.185,10.51,26.458,26.458,0,0,1-5.44,19.046,27.915,27.915,0,0,1-17.156,10.367c-.781.155-1.583.2-2.365.338s-1.55.037-2.352.128" transform="translate(-569.019 57.136)" fill="#1d6320" fill-rule="evenodd"/>
        <path id="Path_353" data-name="Path 353" d="M688.764,491.763a25.021,25.021,0,0,1-4.3-4.808,26.769,26.769,0,0,1-4.59-12.926,27.468,27.468,0,0,1,3.164-15.446c.149-.286.217-.624.634-.193a38.2,38.2,0,0,0,10.183,7.066c3.432,1.79,6.987,3.314,10.676,4.855-.7.272-1.295.506-1.894.742a21.685,21.685,0,0,0-11.6,9.719,18.389,18.389,0,0,0-2.265,10.991" transform="translate(-574.425 57.138)" fill="#447d1d" fill-rule="evenodd"/>
        <path id="Path_354" data-name="Path 354" d="M715.175,464.23c-.012.288-.3.359-.489.489a64.379,64.379,0,0,1-8.428,4.66c-2.922,1.388-5.9,2.642-8.9,3.863a1.227,1.227,0,0,1-1.032,0c-1.546-.671-3.1-1.334-4.667-1.94-.566-.218-.56-.439-.336-.933A21.89,21.89,0,0,1,699,461.545a37.372,37.372,0,0,1,5.637-3.206,22.52,22.52,0,0,0,6.7-4.412c.253-.257.394-.315.557.083a60.288,60.288,0,0,1,3.216,10c.015.066.037.129.064.222" transform="translate(-563.76 52.976)" fill="#64a01d" fill-rule="evenodd"/>
        <path id="Path_355" data-name="Path 355" d="M701.31,462.1a3.529,3.529,0,0,0-.354.263,22.018,22.018,0,0,0-5.379,7.419c-.141.325-.284.4-.618.247a71.949,71.949,0,0,1-10.027-5.437.6.6,0,0,1-.273-.748,64.266,64.266,0,0,1,3.152-9.735c.189-.462.352-.479.7-.126a20.488,20.488,0,0,0,5.98,4.031,42.024,42.024,0,0,1,6.364,3.585c.16.116.361.185.456.5" transform="translate(-569.876 52.99)" fill="#85be1a" fill-rule="evenodd"/>
        <path id="Path_356" data-name="Path 356" d="M698.316,449.647a46.955,46.955,0,0,0,6.1,6.952c.729.75,1.419,1.544,2.163,2.277.439.435.413.665-.151.937a48.814,48.814,0,0,0-5.908,3.143c-.646.425-1.3.839-1.917,1.308a.5.5,0,0,1-.717,0,37.949,37.949,0,0,0-7.51-4.3c-.147-.066-.284-.147-.427-.217-.321-.158-.435-.3-.12-.626,1.569-1.622,3.09-3.286,4.669-4.9a29.058,29.058,0,0,0,3.815-4.582" transform="translate(-565.196 49.175)" fill="#afd53d" fill-rule="evenodd"/>
        <line id="Line_8" data-name="Line 8" y2="202.832" transform="translate(133.07 577.448)" fill="none" stroke="#1d6320" stroke-miterlimit="10" stroke-width="1"/>
        <path id="Path_357-2" data-name="Path 357" d="M666.013,525.042a14.194,14.194,0,1,1-14.2-14.2,14.2,14.2,0,0,1,14.2,14.2" transform="translate(-613.713 110.251)" fill="#85be1a"/>
        <line id="Line_10" data-name="Line 10" y2="177.338" transform="translate(404.539 602.943)" fill="none" stroke="#afd53d" stroke-miterlimit="10" stroke-width="1"/>
        <path id="Path_359" data-name="Path 359" d="M602.083,495.7a14.194,14.194,0,1,1-14.2-14.2,14.194,14.194,0,0,1,14.2,14.2" transform="translate(-183.034 82.89)" fill="#afd53d"/>
      </g>
      <ellipse id="Ellipse_196" data-name="Ellipse 196" cx="1089" cy="281" rx="1089" ry="281" transform="translate(-366 5513)" fill="#64a01d"/>
      <ellipse id="Ellipse_195" data-name="Ellipse 195" cx="868" cy="224" rx="868" ry="224" transform="translate(-145 5516)" fill="#1d6320"/>
      <path id="Path_342-2" data-name="Path 342" d="M737.406,531.44a18.827,18.827,0,0,0,10.089-3.113,2.161,2.161,0,0,0,.794-1.753,10.813,10.813,0,0,0-2.433-8.187,13.574,13.574,0,0,0-5.991-4.236,104.5,104.5,0,0,1-12.35-5.448,22.946,22.946,0,0,1-5.7-4.122c-.253-.263-.3-.075-.39.1a18.366,18.366,0,0,0-2.11,6.963,17.526,17.526,0,0,0,3.6,12.618,18.505,18.505,0,0,0,11.368,6.869c.516.1,1.047.133,1.567.222s1.028.027,1.558.085" transform="translate(484.916 4973.365)" fill="#1d6320" fill-rule="evenodd"/>
      <path id="Path_343-2" data-name="Path 343" d="M725.841,526.7a16.528,16.528,0,0,0,2.851-3.187,17.738,17.738,0,0,0,3.042-8.562,18.181,18.181,0,0,0-2.1-10.233c-.1-.191-.143-.416-.419-.128a25.331,25.331,0,0,1-6.745,4.679c-2.275,1.187-4.63,2.2-7.073,3.218.46.18.858.334,1.254.491a14.362,14.362,0,0,1,7.688,6.439,12.2,12.2,0,0,1,1.5,7.282" transform="translate(508.893 4973.367)" fill="#447d1d" fill-rule="evenodd"/>
      <path id="Path_344-2" data-name="Path 344" d="M722.974,508.457c.01.191.2.238.325.323a42.817,42.817,0,0,0,5.585,3.088c1.934.918,3.908,1.751,5.891,2.559a.8.8,0,0,0,.686,0c1.022-.444,2.049-.883,3.092-1.285.375-.145.371-.294.222-.621a14.488,14.488,0,0,0-5.081-5.844,24.742,24.742,0,0,0-3.736-2.126,14.9,14.9,0,0,1-4.443-2.922c-.166-.17-.259-.211-.367.054a39.8,39.8,0,0,0-2.132,6.625,1.273,1.273,0,0,1-.042.147" transform="translate(487.196 4970.609)" fill="#64a01d" fill-rule="evenodd"/>
      <path id="Path_345-2" data-name="Path 345" d="M718.63,507.042a2.389,2.389,0,0,1,.232.176,14.562,14.562,0,0,1,3.566,4.915c.095.215.189.265.41.164a47.687,47.687,0,0,0,6.641-3.6.4.4,0,0,0,.184-.495,42.855,42.855,0,0,0-2.089-6.449c-.126-.305-.234-.317-.462-.085a13.621,13.621,0,0,1-3.962,2.673,27.721,27.721,0,0,0-4.217,2.375c-.1.075-.24.124-.3.329" transform="translate(504.778 4970.619)" fill="#85be1a" fill-rule="evenodd"/>
      <path id="Path_346-2" data-name="Path 346" d="M727.634,498.794a31.13,31.13,0,0,1-4.045,4.605c-.483.5-.939,1.022-1.432,1.509-.29.288-.275.441.1.618a32.588,32.588,0,0,1,3.916,2.083c.427.282.862.559,1.268.87a.338.338,0,0,0,.477,0,24.992,24.992,0,0,1,4.977-2.849c.1-.042.187-.1.282-.143.213-.1.288-.2.077-.416-1.038-1.074-2.045-2.176-3.092-3.243a19.063,19.063,0,0,1-2.526-3.036" transform="translate(494.658 4968.091)" fill="#afd53d" fill-rule="evenodd"/>
      <line id="Line_6-2" data-name="Line 6" y2="134.381" transform="translate(1222.324 5518.978)" fill="none" stroke="#1d6320" stroke-miterlimit="10" stroke-width="1"/>
      <path id="Path_352-2" data-name="Path 352" d="M712.968,498.923a28.414,28.414,0,0,0,15.227-4.7,3.264,3.264,0,0,0,1.2-2.646,16.326,16.326,0,0,0-3.67-12.355,20.515,20.515,0,0,0-9.043-6.393,157.43,157.43,0,0,1-18.644-8.223,34.621,34.621,0,0,1-8.606-6.225c-.381-.4-.454-.11-.591.157a27.724,27.724,0,0,0-3.185,10.51,26.458,26.458,0,0,0,5.44,19.046,27.915,27.915,0,0,0,17.156,10.367c.781.155,1.583.2,2.365.338s1.55.037,2.352.128" transform="translate(568.888 4930.215)" fill="#1d6320" fill-rule="evenodd"/>
      <path id="Path_353-2" data-name="Path 353" d="M695.513,491.763a25.021,25.021,0,0,0,4.3-4.808,26.769,26.769,0,0,0,4.59-12.926,27.468,27.468,0,0,0-3.164-15.446c-.149-.286-.217-.624-.634-.193a38.2,38.2,0,0,1-10.183,7.066c-3.432,1.79-6.987,3.314-10.676,4.855.7.272,1.295.506,1.894.742a21.685,21.685,0,0,1,11.6,9.719,18.389,18.389,0,0,1,2.265,10.991" transform="translate(605.076 4930.216)" fill="#447d1d" fill-rule="evenodd"/>
      <line id="Line_8-2" data-name="Line 8" y2="202.831" transform="translate(1281.859 5450.527)" fill="none" stroke="#1d6320" stroke-miterlimit="10" stroke-width="1"/>
      <g id="Group_60" data-name="Group 60" transform="translate(-72.833 5029.751)">
        <path id="Path_331" data-name="Path 331" d="M997.214,284.047a17.986,17.986,0,0,1-9.638-2.975,2.066,2.066,0,0,1-.759-1.674,10.328,10.328,0,0,1,2.325-7.821,12.986,12.986,0,0,1,5.722-4.047,99.886,99.886,0,0,0,11.8-5.2,21.909,21.909,0,0,0,5.448-3.941c.242-.25.287-.069.375.1a17.538,17.538,0,0,1,2.015,6.652,16.736,16.736,0,0,1-3.442,12.054,17.669,17.669,0,0,1-10.859,6.561c-.494.1-1,.128-1.5.214s-.981.025-1.488.082" transform="translate(-3.737 -5.505)" fill="#fff" fill-rule="evenodd"/>
        <path id="Path_332" data-name="Path 332" d="M981.62,279.518a15.809,15.809,0,0,1-2.723-3.045,16.916,16.916,0,0,1-2.905-8.18,17.378,17.378,0,0,1,2-9.776c.094-.182.138-.4.4-.122a24.189,24.189,0,0,0,6.445,4.472c2.173,1.133,4.423,2.1,6.757,3.073l-1.2.47a13.72,13.72,0,0,0-7.344,6.151,11.643,11.643,0,0,0-1.433,6.957" transform="translate(0 -5.506)" fill="#fff" fill-rule="evenodd"/>
        <path id="Path_333" data-name="Path 333" d="M1012.458,256.58c-.008.183-.188.227-.31.309a40.892,40.892,0,0,1-5.334,2.95c-1.849.878-3.735,1.672-5.63,2.444a.773.773,0,0,1-.653,0c-.979-.425-1.959-.845-2.954-1.228-.358-.138-.355-.28-.212-.592a13.836,13.836,0,0,1,4.853-5.584,23.546,23.546,0,0,1,3.569-2.03,14.26,14.26,0,0,0,4.243-2.793c.161-.164.25-.2.353.052a38,38,0,0,1,2.034,6.328c.01.041.024.082.041.141" transform="translate(-7.373 -2.628)" fill="#fff" fill-rule="evenodd"/>
        <path id="Path_334" data-name="Path 334" d="M995.583,255.249a2.124,2.124,0,0,0-.223.168,13.934,13.934,0,0,0-3.406,4.694c-.089.206-.18.254-.391.157a45.575,45.575,0,0,1-6.346-3.44.38.38,0,0,1-.173-.473,40.762,40.762,0,0,1,1.995-6.162c.121-.292.224-.3.443-.081a12.934,12.934,0,0,0,3.783,2.552,26.468,26.468,0,0,1,4.029,2.27c.1.073.229.117.289.314" transform="translate(-3.144 -2.638)" fill="#fff" fill-rule="evenodd"/>
        <path id="Path_335" data-name="Path 335" d="M999.886,242.315a29.71,29.71,0,0,0,3.863,4.4c.462.477.9.978,1.369,1.443.278.274.262.42-.095.591a30.938,30.938,0,0,0-3.741,1.989c-.408.27-.823.532-1.212.83a.318.318,0,0,1-.454,0,23.98,23.98,0,0,0-4.755-2.721c-.092-.042-.179-.092-.269-.138-.2-.1-.276-.189-.075-.4.992-1.025,1.955-2.08,2.954-3.1a18.249,18.249,0,0,0,2.414-2.9" transform="translate(-6.381)" fill="#fff" fill-rule="evenodd"/>
      </g>
      <text id="VietSeeds_Foundation_Copyrighted_2020._VietSeeds_is_a_501c_3_registered_in_the_State_of_California_and_eligible_donations_are_tax-deductible" data-name="VietSeeds Foundation © Copyrighted 2020. 
VietSeeds is a 501c(3) registered in the State of California and eligible donations are tax-deductible" transform="translate(796 5053)" fill="#fff" font-size="14" font-family="Muli-Regular, Muli"><tspan x="182.381" y="14">VietSeeds Foundation © Copyrighted 2020. </tspan><tspan x="2.663" y="32">VietSeeds is a 501c(3) registered in the State of California and eligible donations are tax-deductible</tspan></text>
      <text id="About_us_Programs_Our_students_Sponsor_Mentor_News_blog_Contact" data-name="About us      Programs      Our students      Sponsor      Mentor      News &amp; blog      Contact" transform="translate(170 5143)" fill="#fff" font-size="14" font-family="Muli-Regular, Muli"><tspan x="0" y="0" xml:space="preserve">About us      Programs      Our students      Sponsor      Mentor      News &amp; blog      Contact</tspan></text>
      <text id="website_by_M-art.design" data-name="website by M-art.design" transform="translate(1421 5295)" fill="#fff" font-size="14" font-family="Muli-Regular, Muli"><tspan x="-157.08" y="0">website by M-art.design</tspan></text>
      <line id="Line_32" data-name="Line 32" x2="1440" transform="translate(218 5269.5)" fill="none" stroke="#fff" stroke-width="1" opacity="0.103"/>
      <path id="Path_3046" data-name="Path 3046" d="M691.185,464.23c.012.288.3.359.489.489a64.379,64.379,0,0,0,8.428,4.66c2.922,1.388,5.9,2.642,8.9,3.863a1.227,1.227,0,0,0,1.032,0c1.546-.671,3.1-1.334,4.667-1.94.566-.218.56-.439.336-.933a21.89,21.89,0,0,0-7.671-8.825,37.372,37.372,0,0,0-5.637-3.206,22.52,22.52,0,0,1-6.7-4.412c-.253-.257-.394-.315-.557.083a60.288,60.288,0,0,0-3.216,10c-.015.066-.037.129-.064.222" transform="translate(572.328 4926.055)" fill="#64a01d" fill-rule="evenodd"/>
      <path id="Path_3047" data-name="Path 3047" d="M684.627,462.1a3.529,3.529,0,0,1,.354.263,22.018,22.018,0,0,1,5.379,7.419c.141.325.284.4.618.247A71.949,71.949,0,0,0,701,464.592a.6.6,0,0,0,.273-.748,64.266,64.266,0,0,0-3.152-9.735c-.189-.462-.352-.479-.7-.126a20.488,20.488,0,0,1-5.98,4.031,42.024,42.024,0,0,0-6.364,3.585c-.16.116-.361.185-.456.5" transform="translate(598.868 4926.069)" fill="#85be1a" fill-rule="evenodd"/>
      <path id="Path_3048" data-name="Path 3048" d="M698.215,449.647a46.955,46.955,0,0,1-6.1,6.952c-.729.75-1.419,1.544-2.163,2.277-.439.435-.413.665.151.937a48.814,48.814,0,0,1,5.908,3.143c.646.425,1.3.839,1.917,1.308a.5.5,0,0,0,.717,0,37.949,37.949,0,0,1,7.51-4.3c.147-.066.284-.147.427-.217.321-.158.435-.3.12-.626-1.569-1.622-3.09-3.286-4.669-4.9a29.058,29.058,0,0,1-3.815-4.582" transform="translate(583.592 4922.254)" fill="#afd53d" fill-rule="evenodd"/>
    </g>
  </g>
</svg>
