<svg id="Group_532" data-name="Group 532" xmlns="http://www.w3.org/2000/svg" width="48.929" height="48.934" viewBox="0 0 48.929 48.934">
  <g id="Group_531" data-name="Group 531" transform="translate(16.79)">
    <path id="Path_3078" data-name="Path 3078" d="M771.627,264.743a26.184,26.184,0,0,0-7.674,4.015,26.268,26.268,0,0,0-7.674-4.015,39.544,39.544,0,0,0,7.674-8.047A39.543,39.543,0,0,0,771.627,264.743Z" transform="translate(-756.278 -256.696)" fill="#aec828" fill-rule="evenodd"/>
  </g>
  <path id="Path_3079" data-name="Path 3079" d="M781,276.733a37.064,37.064,0,0,1-15.559,8.254,36.134,36.134,0,0,1-5.924-2.047,24.554,24.554,0,0,1,12.038-11.368l0-.007a14.714,14.714,0,0,0,6.045-5.12,23.906,23.906,0,0,1,1.616,3.18A24.242,24.242,0,0,1,781,276.733Z" transform="translate(-740.865 -260.835)" fill="#649731" fill-rule="evenodd"/>
  <path id="Path_3080" data-name="Path 3080" d="M756.435,274.223a26.325,26.325,0,0,0-6.1,7.926,37.021,37.021,0,0,1-7.964-5.416,24.244,24.244,0,0,1,1.788-7.108,23.906,23.906,0,0,1,1.616-3.18,14.714,14.714,0,0,0,6.045,5.12l0,.007A24.154,24.154,0,0,1,756.435,274.223Z" transform="translate(-733.584 -260.835)" fill="#8abb2a" fill-rule="evenodd"/>
  <path id="Path_3081" data-name="Path 3081" d="M783.248,290.458a24.463,24.463,0,0,1-38.779,19.836,14.692,14.692,0,0,1,10.387-17.413,14.568,14.568,0,0,1,2.893-.5,39.081,39.081,0,0,0,22.426-13.805A24.355,24.355,0,0,1,783.248,290.458Z" transform="translate(-734.319 -265.987)" fill="#245224" fill-rule="evenodd"/>
  <path id="Path_3082" data-name="Path 3082" d="M734.929,307.029c0,.48.021.952.062,1.422a24.474,24.474,0,0,1-4.82-29.872,39.144,39.144,0,0,0,17.251,12.335A16.641,16.641,0,0,0,734.929,307.029Z" transform="translate(-727.099 -265.987)" fill="#37692c" fill-rule="evenodd"/>
</svg>
