<svg xmlns="http://www.w3.org/2000/svg" xmlns:xlink="http://www.w3.org/1999/xlink" width="275.037" height="223.881" viewBox="0 0 275.037 223.881">
  <defs>
    <linearGradient id="linear-gradient" x1="-15.616" y1="0.04" x2="-14.422" y2="0.04" gradientUnits="objectBoundingBox">
      <stop offset="0" stop-color="#dfefea"/>
      <stop offset="1" stop-color="#bfe3ee"/>
    </linearGradient>
    <linearGradient id="linear-gradient-2" x1="0.769" y1="0.5" x2="1.769" y2="0.5" xlink:href="#linear-gradient"/>
    <linearGradient id="linear-gradient-3" x1="-71.448" y1="-21.526" x2="-70.425" y2="-21.526" gradientUnits="objectBoundingBox">
      <stop offset="0" stop-color="#f1f8f7"/>
      <stop offset="1" stop-color="#bfe3ee"/>
    </linearGradient>
    <linearGradient id="linear-gradient-4" x1="-84.308" y1="-10.84" x2="-83.337" y2="-10.84" xlink:href="#linear-gradient-3"/>
    <linearGradient id="linear-gradient-5" x1="-37.547" y1="-12.569" x2="-36.558" y2="-12.569" xlink:href="#linear-gradient-3"/>
    <linearGradient id="linear-gradient-6" x1="-31.732" y1="-15.655" x2="-30.737" y2="-15.655" xlink:href="#linear-gradient-3"/>
  </defs>
  <g id="Group_1029" data-name="Group 1029" transform="translate(-2658.31 -1472.484)">
    <path id="Path_3665" data-name="Path 3665" d="M3278.648,1571.422a6.127,6.127,0,0,0,.462-4.385c-3.124-13.577-16.2-5.4-16.2-5.4s-.452-13.665-15.375-10.232-13.577,9.693-13.577,9.693-10.4-4.924-12.242,3.39a9.239,9.239,0,0,0,.758,6.939Z" transform="translate(-371.068 -51.641)" fill="url(#linear-gradient)"/>
    <path id="Path_3666" data-name="Path 3666" d="M2782.8,1500.959h77.18a5.845,5.845,0,0,0,5.865-6.5,5.69,5.69,0,0,0-2.081-3.652,8.367,8.367,0,0,0-8.027-1.363,2.6,2.6,0,0,1-3.281-1.985c-.519-2.505-2.16-5.822-6.976-7.774-4.685-1.9-7.648,1-9.363,3.979a1.33,1.33,0,0,1-2.406-.245c-1.485-4.7-6.661-10.933-23.666-10.933-21.652,0-19.22,11.523-17.286,16.292a1.1,1.1,0,0,1-1.251,1.488c-3.335-.714-9.533-1.64-12.311.542q-.146.115-.286.237C2775,1494.475,2777.593,1500.959,2782.8,1500.959Z" transform="translate(-78.231)" fill="url(#linear-gradient-2)"/>
    <g id="Group_1013" data-name="Group 1013" transform="translate(2700.644 1532.79)">
      <g id="Group_1007" data-name="Group 1007" transform="translate(3.034)">
        <path id="Path_3667" data-name="Path 3667" d="M2793.411,1659.092l-2.062,3.093,3.608-.387,12.467-2.368Z" transform="translate(-2791.349 -1655.763)" fill="#afd8c7"/>
        <path id="Path_3668" data-name="Path 3668" d="M2791.349,1667.036l6.013.334-1.375-.916Z" transform="translate(-2791.349 -1660.615)" fill="#5e901f"/>
        <path id="Path_3669" data-name="Path 3669" d="M2796.107,1652.659l-.666-3.329,14.68,3.667Z" transform="translate(-2794.046 -1649.33)" fill="url(#linear-gradient-3)"/>
        <path id="Path_3670" data-name="Path 3670" d="M2814.4,1660.082l-12.467,2.368,1.246,4.833Z" transform="translate(-2798.322 -1656.416)" fill="url(#linear-gradient-4)"/>
      </g>
      <g id="Group_1012" data-name="Group 1012" transform="translate(0 8.684)">
        <g id="Group_1008" data-name="Group 1008" transform="translate(3.835)">
          <path id="Path_3671" data-name="Path 3671" d="M2793.824,1676a.283.283,0,0,1,0-.469,7.949,7.949,0,0,1,1.282-.712.283.283,0,1,1,.227.518,7.376,7.376,0,0,0-1.19.661A.281.281,0,0,1,2793.824,1676Z" transform="translate(-2793.698 -1674.795)" fill="#5e901f"/>
        </g>
        <g id="Group_1010" data-name="Group 1010" transform="translate(0 1.795)">
          <g id="Group_1009" data-name="Group 1009">
            <path id="Path_3672" data-name="Path 3672" d="M2786.778,1710.734l-.014-.01a8.529,8.529,0,0,1-1.982-2.171.283.283,0,0,1,.475-.307,7.95,7.95,0,0,0,1.849,2.028.283.283,0,0,1-.328.46Zm-2.713-3.615a.281.281,0,0,1-.1-.125,10.675,10.675,0,0,1-.757-2.825.283.283,0,1,1,.561-.071,10.108,10.108,0,0,0,.717,2.676.283.283,0,0,1-.418.345Zm-.8-4.46a.282.282,0,0,1-.126-.248l.007-.137a13.663,13.663,0,0,1,.469-2.736.283.283,0,0,1,.545.15,13.029,13.029,0,0,0-.449,2.623l-.007.127a.282.282,0,0,1-.439.222Zm1.011-4.434a.282.282,0,0,1-.106-.339,21.044,21.044,0,0,1,1.257-2.606.283.283,0,0,1,.385-.107.285.285,0,0,1,.107.385,20.543,20.543,0,0,0-1.224,2.536.282.282,0,0,1-.366.159A.322.322,0,0,1,2784.273,1698.224Zm2.13-4.035a.283.283,0,0,1-.081-.389c.038-.058.075-.116.114-.174a9.205,9.205,0,0,1-1.146-.831.283.283,0,0,1,.368-.43,8.553,8.553,0,0,0,1.092.791c.37-.544.772-1.1,1.225-1.708a.283.283,0,1,1,.452.339c-.437.582-.826,1.124-1.184,1.649q.376.2.77.359a.283.283,0,1,1-.214.523,9.483,9.483,0,0,1-.872-.41l-.13.2a.282.282,0,0,1-.391.084Zm-2.265-2.612a.285.285,0,0,1-.068-.063,7.686,7.686,0,0,1-1.318-2.635.283.283,0,1,1,.544-.152,7.105,7.105,0,0,0,1.222,2.442.283.283,0,0,1-.381.407Zm5.249,3.213a.283.283,0,0,1,.214-.512,8.271,8.271,0,0,0,2.747.109.283.283,0,1,1,.073.561,8.84,8.84,0,0,1-2.934-.116A.28.28,0,0,1,2789.387,1694.79Zm-6.795-7.439a.282.282,0,0,1-.126-.22,9.146,9.146,0,0,1,.316-2.917.283.283,0,1,1,.546.149,8.575,8.575,0,0,0-.3,2.737.282.282,0,0,1-.439.251Zm11.295,7.142a.286.286,0,0,1-.108-.137.283.283,0,0,1,.167-.363,6.881,6.881,0,0,0,.651-.281,5.476,5.476,0,0,0,1.6-1.2.283.283,0,1,1,.417.381,6.035,6.035,0,0,1-1.766,1.329,7.282,7.282,0,0,1-.7.3A.284.284,0,0,1,2793.887,1694.494Zm-4.788-3.993-.023-.017a.282.282,0,0,1-.038-.4,11.03,11.03,0,0,1,2.1-2.036.283.283,0,1,1,.327.461,10.494,10.494,0,0,0-1.987,1.935A.282.282,0,0,1,2789.1,1690.5Zm-5.6-7.581a.282.282,0,0,1-.1-.357,9.648,9.648,0,0,1,.663-1.165,9.2,9.2,0,0,1,1-1.251.283.283,0,0,1,.408.39,8.654,8.654,0,0,0-.939,1.174,9.035,9.035,0,0,0-.624,1.1.283.283,0,0,1-.378.132A.312.312,0,0,1,2783.5,1682.92Zm13.663,8.575a.282.282,0,0,1-.107-.335,2.555,2.555,0,0,0,.035-1.863,2.3,2.3,0,0,0-.323-.575.283.283,0,1,1,.449-.344,2.887,2.887,0,0,1,.4.716,3.14,3.14,0,0,1-.034,2.266.283.283,0,0,1-.365.164A.276.276,0,0,1,2797.159,1691.5Zm-4.5-3.765a.279.279,0,0,1-.112-.147.283.283,0,0,1,.181-.357,4.567,4.567,0,0,1,2.991.071.283.283,0,0,1-.2.528,4.047,4.047,0,0,0-2.615-.061A.281.281,0,0,1,2792.656,1687.73Z" transform="translate(-2782.453 -1680.059)" fill="#5e901f"/>
          </g>
        </g>
        <g id="Group_1011" data-name="Group 1011" transform="translate(5.702 32.825)">
          <path id="Path_3673" data-name="Path 3673" d="M2799.3,1771.573a.283.283,0,0,1,.266-.5,6.076,6.076,0,0,0,1.294.379.282.282,0,1,1-.1.556,6.625,6.625,0,0,1-1.415-.412A.335.335,0,0,1,2799.3,1771.573Z" transform="translate(-2799.175 -1771.055)" fill="#5e901f"/>
        </g>
      </g>
    </g>
    <g id="Group_1016" data-name="Group 1016" transform="translate(2829.2 1489.34)">
      <g id="Group_1014" data-name="Group 1014" transform="translate(0)">
        <path id="Path_3674" data-name="Path 3674" d="M3159.442,1527.724l9.992-5.009,5.032-.8,3.75.7Z" transform="translate(-3159.442 -1521.914)" fill="url(#linear-gradient-5)"/>
        <path id="Path_3675" data-name="Path 3675" d="M3159.442,1529.085l18.5-3.981.277-1.125" transform="translate(-3159.442 -1523.275)" fill="#afd8c7"/>
        <path id="Path_3676" data-name="Path 3676" d="M3178.426,1536.55l-.025.037-.881,2.812-17.943-2.028Z" transform="translate(-3159.531 -1531.559)" fill="#5e901f"/>
        <path id="Path_3677" data-name="Path 3677" d="M3182.132,1527.774l-2.529-2.224-19.809,4.544,16.89.167Z" transform="translate(-3159.674 -1524.31)" fill="url(#linear-gradient-6)"/>
      </g>
      <g id="Group_1015" data-name="Group 1015" transform="translate(25 1.556)">
        <path id="Path_3678" data-name="Path 3678" d="M3337.745,1641.563a13.648,13.648,0,0,1-1.731-.834.266.266,0,1,0-.264.463,14.258,14.258,0,0,0,1.8.867q.333.132.671.248a.266.266,0,0,0,.173-.5C3338.175,1641.728,3337.959,1641.648,3337.745,1641.563Z" transform="translate(-3300.538 -1601.745)" fill="#afd8c8"/>
        <path id="Path_3679" data-name="Path 3679" d="M3235.639,1526.878c-.834.074-1.7.176-2.658.313a.266.266,0,1,0,.076.527c.945-.136,1.8-.237,2.629-.31a.271.271,0,0,0,.127-.045.266.266,0,0,0-.173-.485Z" transform="translate(-3232.753 -1526.74)" fill="#afd8c8"/>
        <path id="Path_3680" data-name="Path 3680" d="M3248.258,1526.994a.266.266,0,0,0-.137-.486c-.853-.042-1.757-.042-2.686,0a.266.266,0,0,0,.023.531c.913-.04,1.8-.04,2.637,0A.263.263,0,0,0,3248.258,1526.994Z" transform="translate(-3240.943 -1526.476)" fill="#afd8c8"/>
        <path id="Path_3681" data-name="Path 3681" d="M3326.292,1633.078a.263.263,0,0,0-.376-.01.265.265,0,0,0-.01.376,14.828,14.828,0,0,0,2.031,1.788.266.266,0,0,0,.307.005.263.263,0,0,0,.065-.063.266.266,0,0,0-.058-.372A14.329,14.329,0,0,1,3326.292,1633.078Z" transform="translate(-3294.092 -1596.67)" fill="#afd8c8"/>
        <path id="Path_3682" data-name="Path 3682" d="M3320.525,1625.538a.266.266,0,0,0,.052-.373c-.143-.19-.282-.382-.415-.579a13.713,13.713,0,0,1-.959-1.638.266.266,0,0,0-.356-.121.269.269,0,0,0-.121.357,14.339,14.339,0,0,0,1,1.7q.208.3.431.6a.266.266,0,0,0,.362.06Z" transform="translate(-3289.39 -1589.952)" fill="#afd8c8"/>
        <path id="Path_3683" data-name="Path 3683" d="M3315.822,1614.065a.276.276,0,0,0,.059-.03.266.266,0,0,0,.1-.312,18.2,18.2,0,0,1-.71-2.522.266.266,0,1,0-.521.109,18.6,18.6,0,0,0,.732,2.6A.266.266,0,0,0,3315.822,1614.065Z" transform="translate(-3286.784 -1582.17)" fill="#afd8c8"/>
        <path id="Path_3684" data-name="Path 3684" d="M3299.757,1551.788q.316.419.612.852c.3.436.579.886.838,1.338a.266.266,0,0,0,.364.1l.018-.011a.265.265,0,0,0,.08-.352c-.266-.464-.555-.927-.859-1.374q-.3-.444-.628-.873a.253.253,0,0,0-.373-.052A.267.267,0,0,0,3299.757,1551.788Z" transform="translate(-3276.872 -1542.872)" fill="#afd8c8"/>
        <path id="Path_3685" data-name="Path 3685" d="M3306.2,1562.411a19.4,19.4,0,0,1,.959,2.442.266.266,0,0,0,.334.174.274.274,0,0,0,.07-.034.266.266,0,0,0,.1-.3,19.836,19.836,0,0,0-.985-2.51.266.266,0,1,0-.481.228Z" transform="translate(-3281.14 -1549.906)" fill="#afd8c8"/>
        <path id="Path_3686" data-name="Path 3686" d="M3291.323,1542.683a21.581,21.581,0,0,1,1.856,1.863.266.266,0,0,0,.349.044l.027-.021a.266.266,0,0,0,.023-.375,22.281,22.281,0,0,0-1.9-1.909.267.267,0,0,0-.355.4Z" transform="translate(-3271.292 -1536.849)" fill="#afd8c8"/>
        <path id="Path_3687" data-name="Path 3687" d="M3272.426,1531.194a.266.266,0,0,0,.234-.478,20.977,20.977,0,0,0-2.49-1.03.266.266,0,0,0-.172.5A20.613,20.613,0,0,1,3272.426,1531.194Z" transform="translate(-3257.179 -1528.582)" fill="#afd8c8"/>
        <path id="Path_3688" data-name="Path 3688" d="M3312.569,1589.348a.266.266,0,0,0,.245-.285l-.024-.336c-.058-.775-.115-1.55-.187-2.323a.266.266,0,1,0-.53.049c.071.77.128,1.542.186,2.313l.025.336A.266.266,0,0,0,3312.569,1589.348Z" transform="translate(-3285.024 -1565.809)" fill="#afd8c8"/>
        <path id="Path_3689" data-name="Path 3689" d="M3283.462,1536.84a.266.266,0,0,0,.324-.422,22.021,22.021,0,0,0-2.234-1.5.266.266,0,1,0-.27.459A21.529,21.529,0,0,1,3283.462,1536.84Z" transform="translate(-3264.647 -1532.012)" fill="#afd8c8"/>
        <path id="Path_3690" data-name="Path 3690" d="M3313.3,1598.618a.265.265,0,0,0-.242.288c.089,1.042.184,1.887.3,2.662a.267.267,0,0,0,.3.224.266.266,0,0,0,.224-.3c-.112-.764-.206-1.6-.3-2.63A.266.266,0,0,0,3313.3,1598.618Z" transform="translate(-3285.674 -1574.017)" fill="#afd8c8"/>
        <path id="Path_3691" data-name="Path 3691" d="M3347.548,1645.208a.266.266,0,0,0-.123.518,21.445,21.445,0,0,0,2.655.45.264.264,0,0,0,.179-.044.266.266,0,0,0-.12-.485A21.193,21.193,0,0,1,3347.548,1645.208Z" transform="translate(-3308.186 -1604.715)" fill="#afd8c8"/>
        <path id="Path_3692" data-name="Path 3692" d="M3310.455,1573.821a.267.267,0,0,0-.2.319c.179.791.325,1.641.446,2.6a.266.266,0,0,0,.414.186.264.264,0,0,0,.114-.254c-.124-.974-.272-1.84-.456-2.647A.266.266,0,0,0,3310.455,1573.821Z" transform="translate(-3283.821 -1557.672)" fill="#afd8c8"/>
        <path id="Path_3693" data-name="Path 3693" d="M3258.878,1527.076q-.464-.074-.929-.128a.266.266,0,0,0-.061.529q.455.052.906.124c.56.089,1.124.2,1.677.345a.266.266,0,1,0,.131-.516C3260.033,1527.287,3259.453,1527.168,3258.878,1527.076Z" transform="translate(-3249.161 -1526.786)" fill="#afd8c8"/>
      </g>
    </g>
    <rect id="Rectangle_216" data-name="Rectangle 216" width="275.037" height="82.535" transform="translate(2658.31 1613.83)" fill="#5e901f"/>
    <path id="Path_3694" data-name="Path 3694" d="M2930.585,1927.782a9.452,9.452,0,0,0,4.392-1.075v25.147a1.1,1.1,0,0,0,1.1,1.1h26.6a9.495,9.495,0,1,1,11.679,0h26.6a1.1,1.1,0,0,0,1.1-1.1v-25.609a9.495,9.495,0,1,0,0-15.915v-23.347a1.1,1.1,0,0,0-1.1-1.1h-64.871a1.1,1.1,0,0,0-1.1,1.1v22.885a9.5,9.5,0,1,0-4.392,17.914Z" transform="translate(-173.17 -272.426)" fill="#fff"/>
    <g id="Group_1022" data-name="Group 1022" transform="translate(2737.99 1527.827)">
      <g id="Group_1017" data-name="Group 1017" transform="translate(13.893 81.5)">
        <path id="Path_3695" data-name="Path 3695" d="M2935.134,1878.783a9.345,9.345,0,0,0,3.837,1.764c.587.15,1.22-.05,1.22.918h-3.237l-2.691-.465v.465h-1.454s-.405-2.378.444-2.682Z" transform="translate(-2932.713 -1877.075)" fill="#212b53"/>
        <path id="Path_3696" data-name="Path 3696" d="M2935.431,1873.775l.163,1.708h0a1.645,1.645,0,0,1-1.781.06l-.1-.06-.3-1.708Z" transform="translate(-2933.174 -1873.775)" fill="#f7b58e"/>
      </g>
      <g id="Group_1018" data-name="Group 1018" transform="translate(2.172 81.5)">
        <path id="Path_3697" data-name="Path 3697" d="M2900.761,1878.783a9.345,9.345,0,0,0,3.836,1.764c.587.15,1.22-.05,1.22.918h-3.236l-2.691-.465v.465h-1.454s-.4-2.378.444-2.682Z" transform="translate(-2898.339 -1877.075)" fill="#212b53"/>
        <path id="Path_3698" data-name="Path 3698" d="M2901.059,1873.775l.164,1.708h0a1.645,1.645,0,0,1-1.781.06l-.1-.06-.3-1.708Z" transform="translate(-2898.802 -1873.775)" fill="#f7b58e"/>
      </g>
      <g id="Group_1019" data-name="Group 1019" transform="translate(31.51 16.554)">
        <path id="Path_3699" data-name="Path 3699" d="M2986.52,1685.941a3.484,3.484,0,0,0,2.022-.26c1.085-.383,3.085-1.883,3.165-.587-.736,1.032-1.477,2.343-1.477,2.343a3.793,3.793,0,0,1-2.588.773l-2.526-.382s-.7-1.094-.743-1.139l.357-.4A5.573,5.573,0,0,0,2986.52,1685.941Z" transform="translate(-2984.372 -1684.149)" fill="#f7b58e"/>
        <path id="Path_3700" data-name="Path 3700" d="M2988.414,1685.442a.965.965,0,0,0,.177.081c-.111.123-.214.251-.312.382-.539.265-1.069.548-1.6.819-.12-.352-.29-.846-.308-.879l3.137-2.523s.469.268.017.995A3.819,3.819,0,0,1,2988.414,1685.442Z" transform="translate(-2985.686 -1683.321)" fill="#f7b58e"/>
      </g>
      <g id="Group_1021" data-name="Group 1021" transform="translate(4.705 0)">
        <path id="Path_3701" data-name="Path 3701" d="M2912.977,1658.144l.34,3.343-3.582.142.718-5.182Z" transform="translate(-2908.382 -1649.057)" fill="#f39f85"/>
        <g id="Group_1020" data-name="Group 1020" transform="translate(2.035 2.201)">
          <path id="Path_3702" data-name="Path 3702" d="M2915.4,1648.729a1.8,1.8,0,0,0,1-.238c1.2-1.745-.167-6.451-.167-6.451l-1.918-.807-2.438,1.52-.139,3.153a2.559,2.559,0,0,0,1.088,2.175h0A5,5,0,0,0,2915.4,1648.729Z" transform="translate(-2911.736 -1641.232)" fill="#f7b58e"/>
        </g>
        <path id="Path_3703" data-name="Path 3703" d="M2908.329,1640.286c.134-.53.064-1.752.6-1.664.394.064,1.742.12,2.2.12,1.081,0,3.009-.423,3.009-2.068a2.121,2.121,0,0,0-2.867-1.763c-1.19.416-2.769,1.335-3.4,1.208-1.059-.213-2.116.408-2.1,1.308a9.008,9.008,0,0,0,.99,3.327,5.06,5.06,0,0,0,1.08,1.413h0Z" transform="translate(-2905.768 -1634.777)" fill="#212b53"/>
        <path id="Path_3704" data-name="Path 3704" d="M2909.777,1651.016a.813.813,0,0,1,1.007.09c.315.262.376.648.135.861a.814.814,0,0,1-1.007-.09C2909.6,1651.614,2909.536,1651.229,2909.777,1651.016Z" transform="translate(-2908.313 -1645.388)" fill="#f7b58e"/>
      </g>
      <path id="Path_3705" data-name="Path 3705" d="M2923.492,1672.677c6.75,5.248,19.84,3.86,19.84,3.86l.6,3.432s-16.609,4.908-18.68.981S2916.742,1667.429,2923.492,1672.677Z" transform="translate(-2910.764 -1658.743)" fill="#ffd147"/>
      <path id="Path_3706" data-name="Path 3706" d="M2899.82,1668.382c.122,0,.243,0,.362.006,3.95.145,7.035,5.6,7.035,9.549v14.3h-15.246v-16.361a7.413,7.413,0,0,1,6.2-7.367A10.865,10.865,0,0,1,2899.82,1668.382Z" transform="translate(-2891.971 -1656.922)" fill="#ffd147"/>
      <path id="Path_3707" data-name="Path 3707" d="M2907.217,1738.324c1.743,8.456,2.011,17.557,2.05,25.2a202.108,202.108,0,0,1-.946,21.3h-2.516l-5.253-35.172s-.573,5.231-1.348,14.1c-.608,6.96-.9,12.844-2.53,21.072h-2.524s-2.179-25.4-2.179-46.492Z" transform="translate(-2891.971 -1703.014)" fill="#212b53"/>
      <path id="Path_3708" data-name="Path 3708" d="M2912.636,1665.735h-3.185l-.507,1.173h4.1Z" transform="translate(-2903.156 -1655.178)" fill="#fabd46"/>
    </g>
    <g id="Group_1027" data-name="Group 1027" transform="translate(2831.262 1529.015)">
      <g id="Group_1023" data-name="Group 1023" transform="translate(27.012 56.954)">
        <path id="Path_3709" data-name="Path 3709" d="M3264.252,1872.636a1.7,1.7,0,0,1,.9,1.293c0,.816.129,2.7.129,2.7l-.811.147-.288-1.73c-.022-.113-1.454,1.827-2.427,2.8l-3.583.069s-.5-1.112,1.956-1.942A9.443,9.443,0,0,0,3264.252,1872.636Z" transform="translate(-3253.552 -1849.666)" fill="#00666b"/>
        <path id="Path_3710" data-name="Path 3710" d="M3252.49,1813.946a15.5,15.5,0,0,0-.21-2.186,13.482,13.482,0,0,0-1.789-4.5c-.879-.326-1.719-.732-2.616-1.087a23.613,23.613,0,0,0-3.173-.9q.067.181.135.363c5.247,13.842,8.18,20.129,8.637,21.617a1.722,1.722,0,0,1,.109.689,5.133,5.133,0,0,1-2.513,3.716c2.233.557,4.332-3.415,4.332-3.415S3252.6,1818.71,3252.49,1813.946Z" transform="translate(-3244.701 -1805.277)" fill="#f39f85"/>
      </g>
      <path id="Path_3711" data-name="Path 3711" d="M3236.227,1662.449l-.5,3.762,3.948-.76-.441-5.113Z" transform="translate(-3211.778 -1652.809)" fill="#f39f85"/>
      <path id="Path_3712" data-name="Path 3712" d="M3232.067,1652.845a1.9,1.9,0,0,1-1.136-.3c-1.359-2.165.189-8,.189-8l4.93.884.157,3.911a3.285,3.285,0,0,1-1.232,2.7h0A5.268,5.268,0,0,1,3232.067,1652.845Z" transform="translate(-3208.246 -1642.404)" fill="#f7b58e"/>
      <path id="Path_3713" data-name="Path 3713" d="M3231.031,1876.484a1.638,1.638,0,0,1,.632,1.383c-.142.774-.343,2.589-.343,2.589h-.795l.024-1.692c0-.111-1.705,1.692-1.993,1.692h-4.207s-.28-1.141,2.19-1.508A9.11,9.11,0,0,0,3231.031,1876.484Z" transform="translate(-3204.271 -1795.248)" fill="#00666b"/>
      <g id="Group_1024" data-name="Group 1024" transform="translate(22.006 56.114)">
        <path id="Path_3714" data-name="Path 3714" d="M3236.907,1813.646a15.558,15.558,0,0,0,.561-2.123,23.164,23.164,0,0,0,.164-5.979c-.711-.61-1.642-.141-2.36-.785a23.556,23.556,0,0,0-2.664-1.945c0,.129,0,.257,0,.387.121,14.8.693,21.716.606,23.271-.013.238-.715,3.3-3.194,3.938,1.9,1.3,4.754-2.474,4.754-2.474S3235.359,1818.152,3236.907,1813.646Z" transform="translate(-3230.02 -1802.814)" fill="#f7b58e"/>
      </g>
      <path id="Path_3715" data-name="Path 3715" d="M3228.756,1671.088l-3.529,5.766a4.512,4.512,0,0,0-.323,2.938l2.242,9.84a8.675,8.675,0,0,1,.214,1.739l.536,25.8h11.268a79.917,79.917,0,0,1-2.145-11.665c-.715-6.574,1.378-9.433.794-12.31a14.153,14.153,0,0,0-2.773-5.616,5.46,5.46,0,0,1-1.168-3.287c-.12-4.88,4.991-18.351.113-15.073S3228.756,1671.088,3228.756,1671.088Z" transform="translate(-3204.568 -1658.327)" fill="#00666b"/>
      <path id="Path_3716" data-name="Path 3716" d="M3216.844,1718.471l-.265.946a5.327,5.327,0,0,1-.76,1.429c-1.242,2.072-5.427,7.146-5.427,7.146l-3.383,1.918s.07.488.837.349a3.473,3.473,0,0,0,1.325-.558s.14.556-.558,1.674c-.521.835-2.195,2.257-1.046,2.511a19.339,19.339,0,0,0,2.33-1.289,2.255,2.255,0,0,0,1.131-1.593l.306-1.791,7.183-5.871a5.437,5.437,0,0,0,1.718-2.5l.024-.072Z" transform="translate(-3192.85 -1691.118)" fill="#f7b58e"/>
      <path id="Path_3717" data-name="Path 3717" d="M3169.951,1697.2a3.178,3.178,0,0,1-1.753-.615c-.895-.547-2.393-2.263-2.71-1.124.46,1.06.873,2.368.873,2.368a3.457,3.457,0,0,0,2.16,1.18l2.324.138s.832-.842.878-.875l-.243-.422A5.082,5.082,0,0,1,3169.951,1697.2Z" transform="translate(-3165.488 -1675.702)" fill="#f7b58e"/>
      <g id="Group_1025" data-name="Group 1025" transform="translate(23.804 17.563)">
        <path id="Path_3718" data-name="Path 3718" d="M3239,1702.134l-3.7-2.5,1.41-9.873.347.05-1.379,9.656,3.126,2.106,2.306-7.861.336.1Z" transform="translate(-3235.294 -1689.764)" fill="#00666b"/>
      </g>
      <path id="Path_3719" data-name="Path 3719" d="M3232.121,1642.728a5.022,5.022,0,0,1-2.661.615,3.378,3.378,0,0,1-2.606-1.717,1.721,1.721,0,0,1,.727-2.387,1.794,1.794,0,0,1,2.188.161.826.826,0,0,0,1.1.03,5.066,5.066,0,0,1,3.337-1.17c1.715,0,1.667,1.663,1.407,2.871a1.736,1.736,0,0,0,.768,1.849c1.018.63,2.314,1.658,2.047,2.685a6.087,6.087,0,0,1-1.139,2.139,1.519,1.519,0,0,0-.015,1.853c.633.834,1.374,2.047,1.154,2.924a10.29,10.29,0,0,1-1.325,2.666,1.653,1.653,0,0,0,0,1.79,2.2,2.2,0,0,1,.348,1.664,3.843,3.843,0,0,1-.625,1.346,1.075,1.075,0,0,1-1.842-.142c-1.123-2.267-3.089-6.907-2.4-10.446.344-1.775.813-4.906.813-4.906S3233.9,1641.973,3232.121,1642.728Z" transform="translate(-3205.78 -1638.26)" fill="#212b53"/>
      <path id="Path_3720" data-name="Path 3720" d="M3198.676,1704.263l-4.3,2.229a2.355,2.355,0,0,1-1.741.171l-11.831-3.736v-1.493l11.531,1.4,3.607-1.917Z" transform="translate(-3175.579 -1679.549)" fill="#f7b58e"/>
      <path id="Path_3721" data-name="Path 3721" d="M3245.525,1653.746a.86.86,0,0,0-1.141.112.74.74,0,0,0-.152,1.067.859.859,0,0,0,1.14-.112A.741.741,0,0,0,3245.525,1653.746Z" transform="translate(-3217.27 -1648.353)" fill="#f7b58e"/>
      <path id="Path_3722" data-name="Path 3722" d="M3223.672,1695.271l-1.191-7.357-5.109,5.871,1.4,4.568,4.868-2.518C3223.495,1695.274,3223.641,1695.836,3223.672,1695.271Z" transform="translate(-3199.679 -1670.982)" fill="#00666b"/>
      <g id="Group_1026" data-name="Group 1026" transform="translate(20.014 12.726)">
        <path id="Path_3723" data-name="Path 3723" d="M3226.037,1691.066c.136-.1.136-.1.275-.193l-1.608-6.6a4.312,4.312,0,0,1,.3-2.782l3.484-5.705c-.113-.081-.077-.069-.133-.171-.013-.023-.156-.029-.194-.035l-3.525,5.712a4.744,4.744,0,0,0-.338,3.074" transform="translate(-3224.179 -1675.58)" fill="#00666b"/>
      </g>
      <path id="Path_3724" data-name="Path 3724" d="M3175.225,1697.779a.9.9,0,0,1-.173.039c.076.13.143.264.206.4.43.339.849.691,1.276,1.034.174-.291.418-.7.441-.726l-2.318-2.843s-.469.151-.2.884A3.475,3.475,0,0,0,3175.225,1697.779Z" transform="translate(-3171.342 -1676.101)" fill="#f7b58e"/>
    </g>
    <path id="Path_3725" data-name="Path 3725" d="M2951.395,1675.175a9.456,9.456,0,0,0,4.392-1.076v25.147a1.1,1.1,0,0,0,1.1,1.1h26.6a9.495,9.495,0,1,1,11.679,0h26.6a1.1,1.1,0,0,0,1.1-1.1v-25.609a9.495,9.495,0,1,0,0-15.915v-23.347a1.1,1.1,0,0,0-1.1-1.1h-64.87a1.1,1.1,0,0,0-1.1,1.1v22.885a9.5,9.5,0,1,0-4.392,17.914Z" transform="translate(-186.883 -105.96)" fill="#5e901f"/>
    <path id="Path_3726" data-name="Path 3726" d="M2929.248,1723.623l3.374.388c1.38.053,2.485-1.911,2.856-3.414a.311.311,0,0,0-.378-.373,43.222,43.222,0,0,0-5.041,1.461Z" transform="translate(-178.546 -163.253)" fill="#f7b58e"/>
    <path id="Path_3727" data-name="Path 3727" d="M2886.42,1679.877s-7.689,10.27-2.859,15.251,15.7,2.868,15.7,2.868v-3.17s-10.265.025-10.869-3.46,2.441-7.258,2.441-7.258" transform="translate(-147.388 -136.67)" fill="#ffd147"/>
    <g id="Group_1028" data-name="Group 1028" transform="translate(2737.99 1547.344)">
      <path id="Path_3728" data-name="Path 3728" d="M2891.971,1704.442c4.866,2.8,12.527,1.606,13.585,1.422v-2.893c-1.332-.011-10.281-.21-10.866-3.584-.609-3.511,2.346-7.223,2.472-7.379l.235.19c-.03.037-3,3.76-2.41,7.138.573,3.3,10.516,3.334,10.718,3.334h.154v3.446l-.122.023a30.929,30.929,0,0,1-5.222.436,18.186,18.186,0,0,1-8.544-1.792Z" transform="translate(-2891.971 -1692.008)" fill="#fabd46"/>
    </g>
  </g>
</svg>
