<svg xmlns="http://www.w3.org/2000/svg" xmlns:xlink="http://www.w3.org/1999/xlink" width="478.624" height="329.69" viewBox="0 0 478.624 329.69">
  <defs>
    <linearGradient id="linear-gradient" x1="-913.41" y1="0.5" x2="-901.369" y2="0.5" gradientUnits="objectBoundingBox">
      <stop offset="0" stop-color="#dfefea"/>
      <stop offset="1" stop-color="#bfe3ee"/>
    </linearGradient>
    <linearGradient id="linear-gradient-2" x1="-9.151" y1="0.5" x2="-8.151" y2="0.5" xlink:href="#linear-gradient"/>
    <linearGradient id="linear-gradient-3" x1="0" y1="0.5" x2="1" y2="0.5" xlink:href="#linear-gradient"/>
    <linearGradient id="linear-gradient-4" y1="0.5" x2="1" y2="0.5" gradientUnits="objectBoundingBox">
      <stop offset="0" stop-color="#f1f8f7"/>
      <stop offset="1" stop-color="#bfe3ee"/>
    </linearGradient>
  </defs>
  <g id="Group_1089" data-name="Group 1089" transform="translate(-3755.263 -1083.225)">
    <g id="Group_1030" data-name="Group 1030" transform="translate(3869.269 1320.951)">
      <path id="Path_3729" data-name="Path 3729" d="M4135.27,1878l-.771-2.634a.694.694,0,0,1,.159-.659l.39-.419a.689.689,0,0,1,.479-.22l2.7-.109a.692.692,0,0,1,.694.505l.091.325a.693.693,0,0,1-.058.513l-1.615,3Z" transform="translate(-4134.473 -1873.958)" fill="#f7b58e"/>
      <path id="Path_3730" data-name="Path 3730" d="M4140.538,1880.634l1.652-1.777a.662.662,0,0,0-.156-1.026l-.916-.524c-.243-.139-1.549.639-1.549.639s.292,1.078,1.413.241c.063.182.378.372.378.372a2.972,2.972,0,0,0-2.318,1.855Z" transform="translate(-4137.668 -1876.288)" fill="#f7b58e"/>
    </g>
    <g id="Group_1032" data-name="Group 1032" transform="translate(3853.656 1324.554)">
      <path id="Path_3731" data-name="Path 3731" d="M4101.875,1885.941s3.1,12.94-2.292,18.108-16.305,1.788-16.305,1.788l-.734-8.969,9.319,1.907a3.488,3.488,0,0,0,4.039-2.393l3.021-10.385Z" transform="translate(-4082.543 -1885.941)" fill="#5e901f"/>
      <g id="Group_1031" data-name="Group 1031" transform="translate(1.311 7.42)">
        <path id="Path_3732" data-name="Path 3732" d="M4087,1923.12a29.544,29.544,0,0,0,5.468.864c3.073.18,7.312-.158,10.054-2.788,2.542-2.438,3.2-6.684,3.271-10.087q.165-.241.323-.486c-.015,3.538-.63,8.17-3.374,10.8-2.319,2.224-5.653,2.858-8.508,2.912-.623.012-1.223,0-1.784-.037a29.959,29.959,0,0,1-5.547-.878Q4086.954,1923.272,4087,1923.12Z" transform="translate(-4086.902 -1910.623)" fill="#fff"/>
      </g>
    </g>
    <path id="Path_3733" data-name="Path 3733" d="M4625.138,1450.3a5.7,5.7,0,1,0-6.627-2.342l-17.376-6.142-6.045,17.1a5.7,5.7,0,1,0-2.449,6.929l-6.131,17.348,41.379,14.625,14.625-41.38Z" transform="translate(-579.617 -248.943)" fill="#212b53"/>
    <g id="Group_1033" data-name="Group 1033" transform="translate(4128.603 1083.225)">
      <rect id="Rectangle_217" data-name="Rectangle 217" width="43.889" height="43.889" transform="matrix(-0.135, 0.991, -0.991, -0.135, 57.938, 13.489)" fill="#abc12d"/>
      <circle id="Ellipse_232" data-name="Ellipse 232" cx="5.705" cy="5.705" r="5.705" transform="matrix(0.796, -0.605, 0.605, 0.796, 51.434, 34.75)" fill="#abc12d"/>
      <circle id="Ellipse_233" data-name="Ellipse 233" cx="5.705" cy="5.705" r="5.705" transform="translate(30.69 1.088) rotate(-5.473)" fill="#abc12d"/>
      <circle id="Ellipse_234" data-name="Ellipse 234" cx="5.705" cy="5.705" r="5.705" transform="matrix(0.179, -0.984, 0.984, 0.179, 0, 33.238)" fill="#abc12d"/>
    </g>
    <path id="Path_3734" data-name="Path 3734" d="M4159.08,1761.789a5.69,5.69,0,0,0-4.811-.005l7.673-16.437-16.7-7.8a5.7,5.7,0,1,0-6.368-2.973l-16.7-7.8-7.82,16.754a5.7,5.7,0,1,1-2.33,4.99l-8.414,18.025,39.769,18.563,7.783-16.673a5.7,5.7,0,1,0,7.92-6.654Z" transform="translate(-243.618 -449.732)" fill="#0d496d"/>
    <rect id="Rectangle_218" data-name="Rectangle 218" width="36.552" height="21.517" transform="translate(3896.934 1388.003)" fill="#5e901f"/>
    <rect id="Rectangle_219" data-name="Rectangle 219" width="36.552" height="47.567" transform="translate(3939.834 1361.953)" fill="#5e901f"/>
    <rect id="Rectangle_220" data-name="Rectangle 220" width="36.552" height="79.478" transform="translate(3982.734 1330.042)" fill="#5e901f"/>
    <rect id="Rectangle_221" data-name="Rectangle 221" width="36.552" height="109.087" transform="translate(4025.635 1300.432)" fill="#5e901f"/>
    <rect id="Rectangle_222" data-name="Rectangle 222" width="36.552" height="141.348" transform="translate(4068.534 1268.171)" fill="#5e901f"/>
    <rect id="Rectangle_223" data-name="Rectangle 223" width="36.552" height="170.517" transform="translate(4111.435 1239.002)" fill="#5e901f"/>
    <rect id="Rectangle_224" data-name="Rectangle 224" width="36.552" height="213.773" transform="translate(4154.334 1195.747)" fill="#5e901f"/>
    <rect id="Rectangle_225" data-name="Rectangle 225" width="36.552" height="252.326" transform="translate(4197.335 1157.193)" fill="#5e901f"/>
    <circle id="Ellipse_235" data-name="Ellipse 235" cx="0.62" cy="0.62" r="0.62" transform="translate(3966.394 1162.424)" fill="#00969d"/>
    <circle id="Ellipse_236" data-name="Ellipse 236" cx="0.62" cy="0.62" r="0.62" transform="translate(3966.394 1164.434)" fill="#00969d"/>
    <g id="Group_1042" data-name="Group 1042" transform="translate(4047.525 1174.519)">
      <g id="Group_1034" data-name="Group 1034" transform="translate(33.049 88.446)">
        <path id="Path_3735" data-name="Path 3735" d="M4843.455,1687.967a11.322,11.322,0,0,1-4.65,2.138c-.711.181-1.479-.061-1.479,1.113h3.923l3.262-.564v.564h1.762s.49-2.881-.539-3.251Z" transform="translate(-4837.326 -1685.897)" fill="#212b53"/>
        <path id="Path_3736" data-name="Path 3736" d="M4857.911,1681.082l-.2,2.07h0a1.993,1.993,0,0,0,2.159.073l.12-.073.732-2.07Z" transform="translate(-4851.583 -1681.082)" fill="#f7b58e"/>
      </g>
      <g id="Group_1035" data-name="Group 1035" transform="translate(24.194 87.56)">
        <path id="Path_3737" data-name="Path 3737" d="M4812.742,1684.914s-.008,2.057-4.141,3.292c-.848.254-.572.5-.731.861h4.755l1.862-2.093.579.5,1.343-1.319s-.627-1.909-1.649-1.926Z" transform="translate(-4807.87 -1682.394)" fill="#212b53"/>
        <path id="Path_3738" data-name="Path 3738" d="M4821.507,1678.871l.772,1.782h0a1.864,1.864,0,0,0,1.932-.587l.085-.1-.625-1.832Z" transform="translate(-4817.407 -1678.133)" fill="#f7b58e"/>
      </g>
      <path id="Path_3739" data-name="Path 3739" d="M4828.913,1525.21l8.509,34.818h3.3s1.1-20.061-3.975-29.959c2.156-16.2.337-22.471.337-22.471Z" transform="translate(-4798.393 -1471.308)" fill="#212b53"/>
      <g id="Group_1036" data-name="Group 1036" transform="translate(12.957 30.582)">
        <path id="Path_3740" data-name="Path 3740" d="M4776.278,1492.754a3.851,3.851,0,0,1-2.223.357c-1.269-.066-3.856-1.029-3.535.367,1.1.864,2.3,2.02,2.3,2.02a4.189,4.189,0,0,0,2.982.01l2.555-1.195s.4-1.377.431-1.438l-.5-.309A6.154,6.154,0,0,1,4776.278,1492.754Z" transform="translate(-4770.493 -1491.377)" fill="#f7b58e"/>
        <path id="Path_3741" data-name="Path 3741" d="M4783.526,1490.52a1.05,1.05,0,0,1-.162.141c.156.1.305.2.451.306.653.112,1.3.246,1.956.366.017-.41.042-.987.051-1.027l-4.11-1.691s-.414.431.292,1.059A4.209,4.209,0,0,0,4783.526,1490.52Z" transform="translate(-4778.254 -1488.614)" fill="#f7b58e"/>
      </g>
      <g id="Group_1037" data-name="Group 1037" transform="translate(0 10.603)">
        <path id="Path_3742" data-name="Path 3742" d="M4731.738,1426.315a3.859,3.859,0,0,1-1.729-1.44c-.784-1-1.758-3.583-2.6-2.423.074,1.4-.013,3.058-.013,3.058a4.189,4.189,0,0,0,1.954,2.254l2.579,1.141s1.3-.6,1.368-.621l-.1-.582A6.163,6.163,0,0,1,4731.738,1426.315Z" transform="translate(-4727.396 -1422.158)" fill="#f7b58e"/>
        <path id="Path_3743" data-name="Path 3743" d="M4738.55,1429.759a1.044,1.044,0,0,1-.212-.029c.031.18.051.36.065.54.345.567.671,1.144,1.01,1.715.321-.257.771-.617.808-.637l-1.428-4.209s-.6-.028-.6.917A4.211,4.211,0,0,0,4738.55,1429.759Z" transform="translate(-4734.943 -1425.641)" fill="#f7b58e"/>
      </g>
      <path id="Path_3744" data-name="Path 3744" d="M4763.725,1432.026s-5.833,6.123-9.691,5.963-11.411-3.8-11.411-3.8l-1.714,1.519s7.983,8.875,13.286,8.875a21.463,21.463,0,0,0,9.53-2.384Z" transform="translate(-4736.846 -1418.456)" fill="#abc12d"/>
      <g id="Group_1038" data-name="Group 1038" transform="translate(21.213 0)">
        <path id="Path_3745" data-name="Path 3745" d="M4820.156,1410.923l1.248,2.358,3.115-1.7-3.022-3.813Z" transform="translate(-4813.482 -1401.489)" fill="#f39f85"/>
        <path id="Path_3746" data-name="Path 3746" d="M4805.936,1397.028s1.1,6.242,2.572,6.759,3.023-1.717,3.023-1.717l1.372-3.825-5.239-1.875Z" transform="translate(-4803.537 -1393.52)" fill="#f7b58e"/>
        <path id="Path_3747" data-name="Path 3747" d="M4797.957,1389.3s1.228,2.112,4.315.936c.891-.037,1.425.826,1.725,1.6.348.9.4.191,1.174.772l1.4,1.757s2.6-5.719-1.48-7.138S4797.957,1389.3,4797.957,1389.3Z" transform="translate(-4797.957 -1386.889)" fill="#212b53"/>
        <path id="Path_3748" data-name="Path 3748" d="M4818.993,1402.758a.793.793,0,0,0-.8.569c-.137.375,0,.729.308.79a.791.791,0,0,0,.8-.568C4819.438,1403.173,4819.3,1402.819,4818.993,1402.758Z" transform="translate(-4812.07 -1397.981)" fill="#f7b58e"/>
      </g>
      <path id="Path_3749" data-name="Path 3749" d="M4817.31,1424.1s-.132.429-3.678.429c-6.823,5.385-2.343,24.673-2.343,24.673h12.665C4823.74,1427.988,4817.31,1424.1,4817.31,1424.1Z" transform="translate(-4785.057 -1412.915)" fill="#abc12d"/>
      <path id="Path_3750" data-name="Path 3750" d="M4800.5,1427.943s4.7,2.25,4.6,4.862-13.9,8.211-13.9,8.211l1.286,2.572s21.859-1.929,21.859-10.14-10.484-14.006-10.484-14.006l-3.3.793.034,1.037" transform="translate(-4772.013 -1409.656)" fill="#abc12d"/>
      <g id="Group_1039" data-name="Group 1039" transform="translate(20.452 29.047)">
        <path id="Path_3751" data-name="Path 3751" d="M4806.329,1486.25a29.322,29.322,0,0,0,6.9-2.742q.04.162.09.32a29.523,29.523,0,0,1-6.915,2.724,70.534,70.534,0,0,1-10.957,2l-.027-.312A70.252,70.252,0,0,0,4806.329,1486.25Z" transform="translate(-4795.423 -1483.508)" fill="#fff"/>
      </g>
      <g id="Group_1040" data-name="Group 1040" transform="translate(19.153 22.718)">
        <path id="Path_3752" data-name="Path 3752" d="M4791.157,1471.16l-.054-.123c.138-.06,13.764-6.04,13.864-8.58l.134.005C4805,1465.085,4791.722,1470.913,4791.157,1471.16Z" transform="translate(-4791.103 -1462.456)" fill="#fff"/>
      </g>
      <g id="Group_1041" data-name="Group 1041" transform="translate(19.099 22.713)">
        <path id="Path_3753" data-name="Path 3753" d="M4791.085,1471.271l-.161-.37c3.807-1.663,13.7-6.424,13.784-8.463l.4.016C4805.006,1465.115,4792.51,1470.648,4791.085,1471.271Z" transform="translate(-4790.924 -1462.438)" fill="#fff"/>
      </g>
      <path id="Path_3754" data-name="Path 3754" d="M4805.646,1507.6s-4.7,13.995-3.739,22.835,5.6,29.557,5.6,29.557h3.261s1.147-15.976-.828-24.409a12.3,12.3,0,0,1,1.6-7.308c5.252-7.111,6.776-20.675,6.776-20.675Z" transform="translate(-4779.415 -1471.308)" fill="#053c5e"/>
    </g>
    <g id="Group_1049" data-name="Group 1049" transform="translate(3830.287 1320.69)">
      <g id="Group_1043" data-name="Group 1043" transform="translate(0 81.957)">
        <path id="Path_3755" data-name="Path 3755" d="M4008.415,2152.364s.009,2.023,4.071,3.237c.833.249.562.5.718.846h-4.674l-1.831-2.058-.569.489-1.32-1.3s.617-1.877,1.621-1.893Z" transform="translate(-4004.81 -2149.887)" fill="#212b53"/>
        <path id="Path_3756" data-name="Path 3756" d="M4012.946,2146.422l-.759,1.751h0a1.833,1.833,0,0,1-1.9-.577l-.083-.1.614-1.8Z" transform="translate(-4008.582 -2145.697)" fill="#f7b58e"/>
      </g>
      <g id="Group_1044" data-name="Group 1044" transform="translate(51.792 83.518)">
        <path id="Path_3757" data-name="Path 3757" d="M4180.195,2157.606a11.035,11.035,0,0,0,4.535,2.085c.693.177,1.442-.059,1.442,1.085h-3.826l-3.181-.55v.55h-1.719s-.478-2.81.525-3.171Z" transform="translate(-4177.258 -2155.587)" fill="#212b53"/>
        <path id="Path_3758" data-name="Path 3758" d="M4179.828,2150.892l.193,2.018h0a1.943,1.943,0,0,1-2.1.071l-.118-.071-.714-2.018Z" transform="translate(-4177.084 -2150.892)" fill="#f7b58e"/>
      </g>
      <g id="Group_1045" data-name="Group 1045" transform="translate(43.24 0)">
        <path id="Path_3759" data-name="Path 3759" d="M4152.9,1877.606l1.225-2.457a.693.693,0,0,0-.041-.677l-.309-.481a.691.691,0,0,0-.432-.3l-2.643-.585a.693.693,0,0,0-.772.375l-.146.3a.691.691,0,0,0-.035.515l1.06,3.239Z" transform="translate(-4149.391 -1873.09)" fill="#f7b58e"/>
        <path id="Path_3760" data-name="Path 3760" d="M4150.055,1880.02l-1.312-2.042a.662.662,0,0,1,.335-.981l.993-.354c.265-.094,1.413.9,1.413.9s-.478,1.009-1.434-.012a1.042,1.042,0,0,1-.437.3,2.972,2.972,0,0,1,1.953,2.236Z" transform="translate(-4148.637 -1875.571)" fill="#f7b58e"/>
      </g>
      <path id="Path_3761" data-name="Path 3761" d="M4042.574,2007.187c-3.141,10.76-29.416,35.01-29.416,35.01l-3.376-.992s7.166-18.691,15.816-24.925a85.278,85.278,0,0,1,10.676-20.2l8.1,6.486S4045.063,2000.622,4042.574,2007.187Z" transform="translate(-4008.287 -1959.103)" fill="#212b53"/>
      <g id="Group_1046" data-name="Group 1046" transform="translate(22.705 1.588)">
        <path id="Path_3762" data-name="Path 3762" d="M4093.172,1909.085l-.37,4.256-4.115-1.3,1.06-3.391Z" transform="translate(-4086.177 -1899.543)" fill="#f39f85"/>
        <path id="Path_3763" data-name="Path 3763" d="M4097.459,1885.6s3.15,4.743,2.281,7.517c-.978,1.392-5-.543-5-.543v-6.431Z" transform="translate(-4090.411 -1883.425)" fill="#f7b58e"/>
        <path id="Path_3764" data-name="Path 3764" d="M4087.981,1882.226a3.857,3.857,0,0,0-1.795.838c-.761.684-.109,3.434-.109,3.434l.034.97a2.127,2.127,0,0,1-2.126,2.2h-.081s-5.215-5.191-3.042-7.581A4.893,4.893,0,0,1,4087.981,1882.226Z" transform="translate(-4080.333 -1879.913)" fill="#212b53"/>
        <path id="Path_3765" data-name="Path 3765" d="M4098.856,1897.659a.872.872,0,0,0-.6-.9c-.41-.161-.8-.02-.879.316a.873.873,0,0,0,.6.9C4098.387,1898.137,4098.78,1898,4098.856,1897.659Z" transform="translate(-4092.242 -1891.184)" fill="#f7b58e"/>
        <path id="Path_3766" data-name="Path 3766" d="M4094.854,1879.674c0,.72-.8,1.3-1.779,1.3s-4.387-.584-4.387-1.3,3.4-1.3,4.387-1.3S4094.854,1878.954,4094.854,1879.674Z" transform="translate(-4086.177 -1878.371)" fill="#212b53"/>
      </g>
      <path id="Path_3767" data-name="Path 3767" d="M4091.069,1937.278l-9.792,3.325-4.96-12.637a11.64,11.64,0,0,1-.717-5.9c.383-2.67,1.783-5.617,6.1-5.617,7.893,0,8.737,10.274,8.737,10.274Z" transform="translate(-4054.24 -1903.417)" fill="#abc12d"/>
      <path id="Path_3768" data-name="Path 3768" d="M4104.335,1985.719l14.437,11.515a9.39,9.39,0,0,1,3.521,6.82l.726,32.13h-3.8s-7.579-20.846-6.1-28.727c-21-5.8-18.573-18.412-18.573-18.412Z" transform="translate(-4067.506 -1951.858)" fill="#053c5e"/>
      <g id="Group_1048" data-name="Group 1048" transform="translate(27.736 4.195)">
        <path id="Path_3769" data-name="Path 3769" d="M4116.6,1887.044s2.849,13-2.638,18.061-16.335,1.477-16.335,1.477l-.564-8.981,9.282,2.084a3.488,3.488,0,0,0,4.084-2.315l3.218-10.325Z" transform="translate(-4097.067 -1887.044)" fill="#abc12d"/>
        <g id="Group_1047" data-name="Group 1047" transform="translate(1.133 7.441)">
          <path id="Path_3770" data-name="Path 3770" d="M4100.94,1923.926a29.574,29.574,0,0,0,5.45.969c3.069.238,7.313-.019,10.106-2.6,2.587-2.389,3.329-6.622,3.462-10.023q.169-.238.332-.48c-.083,3.537-.786,8.157-3.58,10.735-2.361,2.179-5.706,2.75-8.561,2.75-.623,0-1.223-.027-1.784-.071a29.955,29.955,0,0,1-5.529-.984C4100.873,1924.126,4100.907,1924.027,4100.94,1923.926Z" transform="translate(-4100.836 -1911.796)" fill="#fff"/>
        </g>
      </g>
    </g>
    <g id="Group_1058" data-name="Group 1058" transform="translate(3755.263 1311.092)">
      <g id="Group_1050" data-name="Group 1050" transform="translate(54.776 6.575)">
        <path id="Path_3771" data-name="Path 3771" d="M3940.377,1867.72l1.921-1.605a.631.631,0,0,0,.213-.58l-.083-.515a.629.629,0,0,0-.251-.41l-1.994-1.454a.631.631,0,0,0-.782.031l-.233.2a.629.629,0,0,0-.217.418l-.3,3.094Z" transform="translate(-3938.294 -1863.036)" fill="#f7b58e"/>
        <path id="Path_3772" data-name="Path 3772" d="M3937.818,1869.179l-.351-2.185a.6.6,0,0,1,.638-.7l.959.067c.255.018.85,1.27.85,1.27s-.768.669-1.193-.533a.953.953,0,0,1-.475.09,2.711,2.711,0,0,1,.816,2.582Z" transform="translate(-3937.459 -1865.314)" fill="#f39f85"/>
      </g>
      <path id="Path_3773" data-name="Path 3773" d="M3897.081,1875.663s-4.5,12.164-7,16.579-10.286,11.58-10.286,11.58l-3.62-9.831s7-3.412,10.452-7.05,8.12-12.611,8.12-12.611Z" transform="translate(-3839.825 -1864.359)" fill="#5e901f"/>
      <g id="Group_1051" data-name="Group 1051" transform="translate(15.395 0)">
        <path id="Path_3774" data-name="Path 3774" d="M3807.652,1845.284l-1.117-2.24a.631.631,0,0,1,.037-.617l.282-.438a.631.631,0,0,1,.394-.275l2.41-.533a.631.631,0,0,1,.7.342l.134.277a.63.63,0,0,1,.031.47l-.966,2.954Z" transform="translate(-3806.472 -1841.165)" fill="#f7b58e"/>
        <path id="Path_3775" data-name="Path 3775" d="M3813.542,1847.485l1.2-1.862a.6.6,0,0,0-.305-.895l-.906-.323c-.241-.086-1.287.823-1.287.823s.435.92,1.307-.011a.95.95,0,0,0,.4.273,2.712,2.712,0,0,0-1.782,2.039Z" transform="translate(-3810.452 -1843.427)" fill="#f7b58e"/>
      </g>
      <g id="Group_1052" data-name="Group 1052" transform="translate(0 78.948)">
        <path id="Path_3776" data-name="Path 3776" d="M3758.928,2107.36a12.766,12.766,0,0,0-2.411,5.242c-.2.8.069,1.667-1.255,1.667v-4.422l.636-3.678h-.636v-1.986s3.249-.553,3.665.607Z" transform="translate(-3755.263 -2103.965)" fill="#212b53"/>
        <path id="Path_3777" data-name="Path 3777" d="M3768.856,2106.935l-2.333.224h0a2.247,2.247,0,0,1-.082-2.433l.082-.137,2.333-.825Z" transform="translate(-3762.858 -2103.764)" fill="#f7b58e"/>
      </g>
      <path id="Path_3778" data-name="Path 3778" d="M3795.067,2008.208a46.883,46.883,0,0,0-1.955,17,4.656,4.656,0,0,1-3.825,4.945c-7.185,1.353-15.391,6.62-15.391,6.62v3.666s22.208-2,26.84-5.165,6.818-23.828,6.818-23.828Z" transform="translate(-3768.295 -1957.988)" fill="#212b53"/>
      <path id="Path_3779" data-name="Path 3779" d="M3829.561,1878.371c5.036,3.333,2.737,23.827,2.737,23.827l-15.375-1.833,1.667-15.163s-7-8.526-8.331-14.76a144.538,144.538,0,0,1-2-16.065h2.833s3.166,12.817,5.165,16.065,8.665,7.845,8.665,7.845Z" transform="translate(-3792.326 -1850.405)" fill="#5e901f"/>
      <g id="Group_1053" data-name="Group 1053" transform="translate(38.604 29.557)">
        <path id="Path_3780" data-name="Path 3780" d="M3884.9,1961.391c.223-2.213,1.48-16.043-1.234-21.545.063-.121.124-.243.182-.366,3.045,5.7,1.532,20.588,1.363,22.148C3885.112,1961.548,3885.007,1961.47,3884.9,1961.391Z" transform="translate(-3883.669 -1939.48)" fill="url(#linear-gradient)"/>
      </g>
      <g id="Group_1054" data-name="Group 1054" transform="translate(54.055 91.602)">
        <path id="Path_3781" data-name="Path 3781" d="M3938.657,2153.618a12.768,12.768,0,0,0,5.242,2.41c.8.2,1.667-.069,1.667,1.255h-4.422l-3.678-.636v.636h-1.986s-.553-3.249.606-3.665Z" transform="translate(-3935.262 -2151.284)" fill="#212b53"/>
        <path id="Path_3782" data-name="Path 3782" d="M3938.233,2145.856l.224,2.333h0a2.247,2.247,0,0,1-2.433.082l-.136-.082-.825-2.333Z" transform="translate(-3935.062 -2145.856)" fill="#f7b58e"/>
      </g>
      <g id="Group_1057" data-name="Group 1057" transform="translate(29.921 15.204)">
        <g id="Group_1055" data-name="Group 1055" transform="translate(3.943 9.588)">
          <path id="Path_3783" data-name="Path 3783" d="M3867.9,1926.494l.672-2.866,3.292.368.245,3.406a.667.667,0,0,1-.068.068A9.362,9.362,0,0,0,3867.9,1926.494Z" transform="translate(-3867.902 -1923.628)" fill="#f39f85"/>
        </g>
        <g id="Group_1056" data-name="Group 1056">
          <path id="Path_3784" data-name="Path 3784" d="M3864.135,1904.425l.864,4.508a.708.708,0,0,1,.755.8.867.867,0,0,1,.122.324,5.258,5.258,0,0,0,4.177.378c2.8-.951.289-6.263.289-6.263Z" transform="translate(-3861.324 -1900.436)" fill="#f7b58e"/>
          <path id="Path_3785" data-name="Path 3785" d="M3856.628,1899.337a2.818,2.818,0,0,0-.9-1.156c-1.823-1.181-.511-2.41-.041-2.813.52-.446.263-1.466.921-2.147,1.006-1.041,2.221-.277,2.925-.512s1.019-1.259,2.141-.9,1.121,1.2,1.507,1.505.87-.747,2.048.209c1.792,1.454-1.166,2.6-1.166,2.6a5.6,5.6,0,0,1-3.914.365.735.735,0,0,0-.828.33c-.428.8.094,4.585.094,4.585l-.824-.511A2.075,2.075,0,0,1,3856.628,1899.337Z" transform="translate(-3854.786 -1891.736)" fill="#212b53"/>
          <path id="Path_3786" data-name="Path 3786" d="M3866.594,1914.995a.7.7,0,1,0,.254-.962A.7.7,0,0,0,3866.594,1914.995Z" transform="translate(-3862.977 -1907.262)" fill="#f7b58e"/>
        </g>
      </g>
      <path id="Path_3787" data-name="Path 3787" d="M3852.3,2009.178s11.127,10.593,12.123,13.184,5.162,26.806,5.162,26.806h-3.166s-6.35-10.32-8.293-18.423a8.332,8.332,0,0,0-5.643-6.009c-17.527-5.43-15.557-17.391-15.557-17.391Z" transform="translate(-3812.327 -1957.385)" fill="#053c5e"/>
      <path id="Path_3788" data-name="Path 3788" d="M3870,1929.432l.067,1.56-5.093-1.016,1.067-1.7Z" transform="translate(-3831.992 -1902.088)" fill="#fff"/>
    </g>
    <g id="Group_1064" data-name="Group 1064" transform="translate(3929.084 1272.357)">
      <g id="Group_1060" data-name="Group 1060" transform="translate(0.821 19.93)">
        <path id="Path_3789" data-name="Path 3789" d="M4360.254,1787.774l1.83-6.363a2.178,2.178,0,0,0,.688.087,2.016,2.016,0,0,0,1.817-1.838,1.851,1.851,0,0,0,.689-1.046l4.1,1.927s-1.887,7.057-4.562,9.442-11.333,8.977-11.333,8.977l-1.622-.643Z" transform="translate(-4347.139 -1778.614)" fill="#f39f85"/>
        <g id="Group_1059" data-name="Group 1059" transform="translate(0 19.145)">
          <path id="Path_3790" data-name="Path 3790" d="M4340.4,1843.13a3.356,3.356,0,0,1-1.556,1.03c-.981.4-3.264.63-2.543,1.5,1.127.219,2.424.612,2.424.612a3.708,3.708,0,0,0,2.256-1.039l1.521-1.735s-.168-1.107-.167-1.16l-.485-.041A5.427,5.427,0,0,1,4340.4,1843.13Z" transform="translate(-4336.165 -1842.294)" fill="#f39f85"/>
          <path id="Path_3791" data-name="Path 3791" d="M4344.834,1844.684a.837.837,0,0,1-.074.156c.151.012.3.032.445.057.532-.151,1.068-.285,1.6-.43-.127-.294-.305-.707-.312-.739l-3.682.255s-.165.448.583.641A3.674,3.674,0,0,0,4344.834,1844.684Z" transform="translate(-4340.802 -1843.298)" fill="#f39f85"/>
        </g>
      </g>
      <g id="Group_1061" data-name="Group 1061" transform="translate(13.636 0)">
        <path id="Path_3792" data-name="Path 3792" d="M4402.056,1739.924l1.234,2.736,3.618-1.69-3.124-4.495Z" transform="translate(-4395.061 -1729.214)" fill="#f39f85"/>
        <path id="Path_3793" data-name="Path 3793" d="M4387.487,1723.383s.8,7.085,2.41,7.77,3.516-1.713,3.516-1.713l1.812-4.2-5.749-2.476Z" transform="translate(-4384.872 -1719.627)" fill="#f7b58e"/>
        <path id="Path_3794" data-name="Path 3794" d="M4378.789,1714.674s1.229,2.458,4.779,1.357c1,.021,1.542,1.029,1.823,1.923.327,1.037.438.243,1.263.95l1.446,2.071s3.318-6.237-1.157-8.118S4378.789,1714.674,4378.789,1714.674Z" transform="translate(-4378.789 -1712.323)" fill="#212b53"/>
        <path id="Path_3795" data-name="Path 3795" d="M4401.7,1730.578a.892.892,0,0,0-.943.581c-.18.412-.051.819.29.909a.892.892,0,0,0,.943-.582C4402.173,1731.076,4402.044,1730.669,4401.7,1730.578Z" transform="translate(-4394.099 -1725.078)" fill="#f7b58e"/>
      </g>
      <path id="Path_3796" data-name="Path 3796" d="M4403.08,1749.231c8.927,5.291,5.525,27.143,5.525,27.143H4395.03s-.156-5.715-.336-11.752c-.136-4.572-.567-9.328.658-11.927C4397.062,1749.112,4400.863,1747.917,4403.08,1749.231Z" transform="translate(-4376.147 -1737.773)" fill="#abc12d"/>
      <path id="Path_3797" data-name="Path 3797" d="M4365.976,1790.476s-2.023,7.02-4.745,9.352-10.542,8.621-10.542,8.621l-2.57-.538,8.6-10.38,3.113-10.092Z" transform="translate(-4343.704 -1764.857)" fill="#f7b58e"/>
      <path id="Path_3798" data-name="Path 3798" d="M4392.346,1773.314l-7.465-3.036,3.737-8.321,4.925,2.564Z" transform="translate(-4369.414 -1747.035)" fill="#abc12d"/>
      <g id="Group_1062" data-name="Group 1062" transform="translate(28.954 83.964)">
        <path id="Path_3799" data-name="Path 3799" d="M4436.233,1998.9a11.991,11.991,0,0,1-4.925,2.265c-.754.192-1.566-.064-1.566,1.179h4.155l3.455-.6v.6h1.866s.52-3.052-.57-3.444Z" transform="translate(-4429.742 -1996.708)" fill="#212b53"/>
        <path id="Path_3800" data-name="Path 3800" d="M4451.7,1991.608l-.367,2.192h0a2.111,2.111,0,0,0,2.286.076l.129-.076-.187-2.192Z" transform="translate(-4444.842 -1991.608)" fill="#f7b58e"/>
      </g>
      <path id="Path_3801" data-name="Path 3801" d="M4422.6,1840.718s1.333,4.568,1.6,15.727a15.826,15.826,0,0,0,1.65,6.488c3.9,8.077,2.136,23.7,2.136,23.7h-2.694l-10.776-38.381,3.792-7.533Z" transform="translate(-4390.139 -1802.117)" fill="#212b53"/>
      <g id="Group_1063" data-name="Group 1063" transform="translate(14.296 85.284)">
        <path id="Path_3802" data-name="Path 3802" d="M4387.475,2003.29a12,12,0,0,1-4.925,2.265c-.753.192-1.566-.064-1.566,1.179h4.155l3.455-.6v.6h1.866s.52-3.052-.57-3.443Z" transform="translate(-4380.984 -2001.098)" fill="#212b53"/>
        <path id="Path_3803" data-name="Path 3803" d="M4402.942,1996l-.367,2.192h0a2.112,2.112,0,0,0,2.287.077l.127-.077L4404.8,1996Z" transform="translate(-4396.084 -1995.998)" fill="#f7b58e"/>
      </g>
      <path id="Path_3804" data-name="Path 3804" d="M4340.418,1855.71l-2.04,3.011c-.92,1.157-3.286.685-4.766-.062a.333.333,0,0,1-.039-.567,46.327,46.327,0,0,1,4.7-3.074Z" transform="translate(-4333.434 -1812.117)" fill="#f7b58e"/>
      <path id="Path_3805" data-name="Path 3805" d="M4396.242,1840.718l1.334,47.343h2.84s4-13.167,3.124-22.251a14.7,14.7,0,0,1,1.078-7.243,41,41,0,0,0,3.55-17.85Z" transform="translate(-4377.359 -1802.117)" fill="#053c5e"/>
    </g>
    <g id="Group_1070" data-name="Group 1070" transform="translate(3989.391 1235.047)">
      <g id="Group_1066" data-name="Group 1066" transform="translate(10.424 0.678)">
        <path id="Path_3806" data-name="Path 3806" d="M4587.76,1605.282l-5.369,14.029-3.384-2.518,7.562-12.748Z" transform="translate(-4575.909 -1599.965)" fill="#f39f85"/>
        <g id="Group_1065" data-name="Group 1065" transform="translate(10.463)">
          <path id="Path_3807" data-name="Path 3807" d="M4604.229,1591.55a2.179,2.179,0,0,0-.485,1.481l-.237,2.025.276.314.95.843c-.034-.42-.081,0-.081,0l1.528-2.659s1.847-1.185-.483-2.932a.67.67,0,0,0-.765-.049A1.711,1.711,0,0,0,4604.229,1591.55Z" transform="translate(-4603.506 -1590.475)" fill="#f39f85"/>
        </g>
        <path id="Path_3808" data-name="Path 3808" d="M4568.7,1657.244a88.234,88.234,0,0,0,6.482-10.132l-2.912-3.315-3.571,4.162Z" transform="translate(-4568.702 -1627.766)" fill="#3eb3b7"/>
      </g>
      <path id="Path_3809" data-name="Path 3809" d="M4540.547,1818.552l1.709.3c.354-2.12,5.671-12.173,6.1-17.394a117.825,117.825,0,0,1,1.827-12.25l-5.718-1.7s-1.449,0,.142,11.814C4541.034,1804.011,4540.076,1814.661,4540.547,1818.552Z" transform="translate(-4538.509 -1727.59)" fill="#f39f85"/>
      <path id="Path_3810" data-name="Path 3810" d="M4554.815,1773.21s1.343,8.081,3.211,16.725c-1.951,5.219,1.022,19.783,1.078,19.732.224-.211,1.252,1.055,1.252,1.055s2.168-12.854,2.647-18.65.6-12.864.6-12.864Z" transform="translate(-4548.565 -1717.595)" fill="#f7b58e"/>
      <path id="Path_3811" data-name="Path 3811" d="M4566.685,1891.764a1.909,1.909,0,0,0-.665,1.571c.149.88.361,2.94.361,2.94h.837l-.026-1.922c0-.126,1.8,1.922,2.1,1.922h4.429s.294-1.3-2.307-1.713A9.477,9.477,0,0,1,4566.685,1891.764Z" transform="translate(-4556.389 -1800.507)" fill="#053c5e"/>
      <g id="Group_1067" data-name="Group 1067" transform="translate(0 89.097)">
        <path id="Path_3812" data-name="Path 3812" d="M4542.71,1885.274l-.119,1.834a1.712,1.712,0,0,0,.3,1.085,6.885,6.885,0,0,0,1.332,1.384c-1.284.413-2.451-1.027-3.064-1.984a2.283,2.283,0,0,1-.333-1.572l.216-1.443Z" transform="translate(-4538.766 -1884.579)" fill="#f39f85"/>
        <path id="Path_3813" data-name="Path 3813" d="M4536.066,1890.247s-1.129.1-1.316.961-.722,2.6-.722,2.6l.617.491.868-1.723a25.691,25.691,0,0,0,2.166,2.642h4.834s0-1.6-3.025-1.673C4536.7,1893.475,4536.066,1890.247,4536.066,1890.247Z" transform="translate(-4534.028 -1888.543)" fill="#212b53"/>
      </g>
      <path id="Path_3814" data-name="Path 3814" d="M4606.521,1603.027l-5.369,14.029-3.384-2.518,7.562-12.748Z" transform="translate(-4578.605 -1597.71)" fill="#f7b58e"/>
      <g id="Group_1068" data-name="Group 1068" transform="translate(26.528)">
        <path id="Path_3815" data-name="Path 3815" d="M4622.989,1589.294a2.183,2.183,0,0,0-.485,1.482l-.237,2.025.276.314.95.843c-.033-.419-.081,0-.081,0l1.527-2.659s1.847-1.185-.482-2.932a.67.67,0,0,0-.766-.049A1.711,1.711,0,0,0,4622.989,1589.294Z" transform="translate(-4622.267 -1588.22)" fill="#f7b58e"/>
      </g>
      <path id="Path_3816" data-name="Path 3816" d="M4564.82,1654.547h-3.459l1.38-4.066,2.705,1.662Z" transform="translate(-4553.144 -1631.762)" fill="#f39f85"/>
      <path id="Path_3817" data-name="Path 3817" d="M4562.161,1652.669c-.017-.1-.041-.188-.061-.282,3.426-4.419,6.335-7.53,6.335-7.53l-2.912-3.315-6.62,6.285-1.942.008a3.891,3.891,0,0,0-4.915.632c-.837.863-1.394,3.2-.835,5.68,1.542,6.823.335,10.432.335,10.432l8.927,3.328s.2-5.933.343-10.095v-.014a4.644,4.644,0,0,1,.725-2.277A4.068,4.068,0,0,0,4562.161,1652.669Z" transform="translate(-4545.888 -1625.511)" fill="#abc12d"/>
      <g id="Group_1069" data-name="Group 1069" transform="translate(7.219 11.409)">
        <path id="Path_3818" data-name="Path 3818" d="M4563.715,1626.169l-5.674,1.986.56,4.235c.008.06.024.118.035.177.109.019.218.04.326.066l.053.015.052.01a3.887,3.887,0,0,1,2.652,2.655,6.689,6.689,0,0,0,2.455-.032,2.459,2.459,0,0,0,1.29-.556C4566.661,1632.115,4563.715,1626.169,4563.715,1626.169Z" transform="translate(-4558.041 -1626.169)" fill="#f7b58e"/>
      </g>
      <path id="Path_3819" data-name="Path 3819" d="M4548.166,1626.515c-1.528.746-1.168,8.618-1.432,13.98a6.092,6.092,0,0,1-5.158,5.7c-2.022.323-4.242.382-5.581-.381.885-.724,5.658-7.747,4.129-17.046-.2-1.224-.226-4.632,1.835-6.481,2.289-2.054,7.014.626,7.014.626S4550.264,1625.489,4548.166,1626.515Z" transform="translate(-4535.404 -1611.501)" fill="#212b53"/>
      <path id="Path_3820" data-name="Path 3820" d="M4554.863,1717.479a66.275,66.275,0,0,1,1.188,9.647c0,1.977-.485,14.431-.485,14.431s-8.48.614-10.128.614c-.408-10.206-2.734-10.52-2.734-15.279a13.569,13.569,0,0,1,1.875-5.9,8.638,8.638,0,0,0,1.176-3.309l.056-.193Z" transform="translate(-4540.095 -1678.619)" fill="#232c54"/>
      <path id="Path_3821" data-name="Path 3821" d="M4550.442,1793.238" transform="translate(-4545.507 -1731.601)" fill="#abc12d"/>
    </g>
    <g id="Group_1072" data-name="Group 1072" transform="translate(4123.805 1126.825)">
      <path id="Path_3822" data-name="Path 3822" d="M5023.18,1231.324s1.135-2.671,2.228-3.031.094,1.547.094,1.547Z" transform="translate(-5010.536 -1228.248)" fill="#f39f85"/>
      <path id="Path_3823" data-name="Path 3823" d="M5160.98,1267.6l.692-2.743s.964-5.009-1.646-5.293a30.1,30.1,0,0,0-.3,7.427Z" transform="translate(-5105.957 -1250.149)" fill="#f7b690"/>
      <path id="Path_3824" data-name="Path 3824" d="M5022,1236.025l-.039-1.121s4.537-3.3,4.488-4.336-1.045-2.119-1.776-2a13.578,13.578,0,0,0-4.4,3.736,14.65,14.65,0,0,0-.155,3.936Z" transform="translate(-5008.35 -1228.467)" fill="#f7b690"/>
      <path id="Path_3825" data-name="Path 3825" d="M5098.212,1291.737s8.075,1.23,10.128,1.194a62.866,62.866,0,0,0,5.157-5.858c1.066-1.379,2.9-4.162,2.9-4.162l2.942,1.448s-7.072,12.259-8.639,13.071-11.792,1.806-11.792,1.806Z" transform="translate(-5063.01 -1266.477)" fill="#abc12d"/>
      <path id="Path_3826" data-name="Path 3826" d="M5059.938,1320.276s-1.431,4.675-2.7,6.276a4.505,4.505,0,0,1-2.474,1.8c-.043.016-13.853-1.9-13.853-1.9l3.958-10.466,3.31-5.994,3.764-.333,5.938,1.036Z" transform="translate(-5022.935 -1285.181)" fill="#c9e6eb"/>
      <path id="Path_3827" data-name="Path 3827" d="M5040.375,1361.432l15.847,2.48-.546,1.316-15.771-2.4Z" transform="translate(-5022.232 -1321.391)" fill="#00878a"/>
      <path id="Path_3828" data-name="Path 3828" d="M5079.83,1304.343s-1.815-.406-2.43.433a2.736,2.736,0,0,0,1.154,1.443Z" transform="translate(-5048.454 -1281.397)" fill="#00959c"/>
      <path id="Path_3829" data-name="Path 3829" d="M4989.587,1510.081c-.019.142-2.773,3.51-2.773,3.51l1.241,1.753,2.793-.214,3.382-3.306Z" transform="translate(-4985.103 -1425.351)" fill="#f39f85"/>
      <path id="Path_3830" data-name="Path 3830" d="M4981.12,1521.128l2.064-.81,1.715,1.436,2.348.163.5.341-.743,1.054s-.164,3.81.2,4.754a7.1,7.1,0,0,0,1.433.093s.983.084.8,1.839l-4.944.17-.448-.327A70.132,70.132,0,0,1,4981.12,1521.128Z" transform="translate(-4981.12 -1432.51)" fill="#0a3c5f"/>
      <path id="Path_3831" data-name="Path 3831" d="M4981.894,1522l-.774.3a70.122,70.122,0,0,0,2.923,8.712l.448.327,4.944-.17a3.277,3.277,0,0,0,0-.778l-4.689.161Z" transform="translate(-4981.12 -1433.688)" fill="#232c54"/>
      <path id="Path_3832" data-name="Path 3832" d="M5127.737,1434.643l.065,2.951.033.946,2.552-.134,1.93-2.21-1.2-.9.088-1.972Z" transform="translate(-5083.658 -1371.673)" fill="#f39f85"/>
      <path id="Path_3833" data-name="Path 3833" d="M5125.906,1445.95l.008-1.38.482-2.022,2.036.353,2.453-2.246,1.889,1.674s2.272.219,3.224.29a1.954,1.954,0,0,1,1.856,1.385l.053,1.534Z" transform="translate(-5082.377 -1376.796)" fill="#0a3c5f"/>
      <path id="Path_3834" data-name="Path 3834" d="M5125.911,1453.967l0,.923,12-.414-.036-1.039Z" transform="translate(-5082.378 -1385.736)" fill="#232c54"/>
      <path id="Path_3835" data-name="Path 3835" d="M5035.433,1353.458s-3.014,1.041-3.569,5.622.721,13.3,12.2,9.9,15.478-9.692,15.478-9.692a8.207,8.207,0,0,0-.212,2.623c.133,1.357,1.428,9.441.928,13.112,4.622-.743,5.461-.858,5.461-.858s4.841-19.471,4.6-22.684-2.422-3.786-4-3.732-19.929,7.361-19.929,7.361Z" transform="translate(-5016.534 -1311.823)" fill="#232c54"/>
      <path id="Path_3836" data-name="Path 3836" d="M5081.861,1296.913a24.935,24.935,0,0,0-.979,3.565c.021.6,1.833,1.126,2.439,1.17s1.574-.414,1.7-1.046.67-4.116.67-4.116l-1.041-1.391Z" transform="translate(-5050.889 -1274.998)" fill="#f39f85"/>
      <path id="Path_3837" data-name="Path 3837" d="M5087.416,1312.278s-.584.971-1.058,1.084a2.407,2.407,0,0,1-.8.071l-1.336-.5.3.983a4.722,4.722,0,0,0,1.087.424,1.627,1.627,0,0,0,.865-.05,1.85,1.85,0,0,0,.886-.573l.386-1.548Z" transform="translate(-5053.227 -1286.939)" fill="#aad9e1"/>
      <path id="Path_3838" data-name="Path 3838" d="M5077.066,1305.482c-.667.5-.247,2.566.557,3.3,1.037-.2,2.094,1.023,2.094,1.023a10.772,10.772,0,0,0-1.506-2.981C5077.841,1306.338,5076.882,1306.093,5077.066,1305.482Z" transform="translate(-5047.989 -1282.262)" fill="#63c0c3"/>
      <path id="Path_3839" data-name="Path 3839" d="M5049.243,1320.18s-.08,2.479-1.27,3.517c-2.512,2.19-11.352,2.87-14.7,6.07-.806,2.1-1.139,3.325-1.139,3.325l3.3.3s2.495-1.223,4.671-2.034c3.28-1.223,5.519-1.472,7.759-3.568a7.813,7.813,0,0,0,2.188-7.641A6.628,6.628,0,0,1,5049.243,1320.18Z" transform="translate(-5016.798 -1292.522)" fill="#232c54"/>
      <path id="Path_3840" data-name="Path 3840" d="M5093.664,1315.9a7.186,7.186,0,0,0,.68,3.164c1.049,1.835,1.9,2.524,2.483,3.926,1.389-5.5-.387-8.742-1.666-9.454A2.673,2.673,0,0,0,5093.664,1315.9Z" transform="translate(-5059.822 -1287.896)" fill="#3eb3b7"/>
      <path id="Path_3841" data-name="Path 3841" d="M5035.431,1312.719a4.269,4.269,0,0,1-.769,4.718c-3.733,4.539-13.129,6.008-16.307,9.793s-3.515,5.893-3.515,5.893a14.231,14.231,0,0,1-1.067-2.782,10.283,10.283,0,0,1,5.4-11.886,22.587,22.587,0,0,0,7.9-7.479,5.028,5.028,0,0,1,2.116-1.305l3.589-.016Z" transform="translate(-5003.703 -1285.18)" fill="#abc12d"/>
      <path id="Path_3842" data-name="Path 3842" d="M5008.129,1366.138a11.5,11.5,0,0,0-3.1,4.787c-.874,2.862-.312,16.051-1.054,20.227-3.794,5.319-9.644,18.123-9.644,18.123l4.915,4s14.352-16.384,15.21-17.818c.771-2.1,5.251-21.565,5.3-27.555Z" transform="translate(-4990.358 -1324.682)" fill="#0a3c5f"/>
      <path id="Path_3843" data-name="Path 3843" d="M5032.1,1270.7a3.173,3.173,0,0,1,.071,3.039,6.605,6.605,0,0,1-4.8,3.479c-1.741.092-9.951-9.69-9.951-9.69a106.841,106.841,0,0,1-.974-14.587c1.468-.039,3.106-.107,3.106-.107s2.306,11.63,2.806,12.472,8.205,3.994,9.16,4.725A2.318,2.318,0,0,1,5032.1,1270.7Z" transform="translate(-5005.814 -1245.442)" fill="#abc12d"/>
      <g id="Group_1071" data-name="Group 1071" transform="translate(33.768 16.661)">
        <path id="Path_3844" data-name="Path 3844" d="M5093.471,1288.1a6.66,6.66,0,0,0,.06,1.742c.161.34,1.714,1.9,2.822,1.862s1.675-1.182,1.785-4.241a14.307,14.307,0,0,0-.131-3.8l-4.39,1.823Z" transform="translate(-5093.439 -1283.665)" fill="#f7b690"/>
      </g>
      <path id="Path_3845" data-name="Path 3845" d="M5086.1,1282.048c.353.19.364.188.617-.023a1.085,1.085,0,0,0,.313-.586,1.924,1.924,0,0,0,1.135-1.783,2.7,2.7,0,0,0,3.877-2.094,2.036,2.036,0,0,1-2.048-.448c-.823-.879-3.02-2.038-4.858-1.3a1.741,1.741,0,0,0-1.2,1.555,1.671,1.671,0,0,0-1.244,1.138c-.453,1.068.147,4.261.147,4.261l-.189.842a8.853,8.853,0,0,0,1.838.6c.4-.014,1.263-2.234,1.263-2.234Z" transform="translate(-5052.041 -1261.349)" fill="#232c54"/>
      <path id="Path_3846" data-name="Path 3846" d="M5092.822,1294.262a6.286,6.286,0,0,0-.126-1.552c-.159-.441-.651-.5-.794-.045s.1,2.245.518,2.23S5092.822,1294.262,5092.822,1294.262Z" transform="translate(-5058.567 -1273.079)" fill="#f7b690"/>
      <path id="Path_3847" data-name="Path 3847" d="M5088.379,1315.23l.051,1.49a1.812,1.812,0,0,0,1.1-.038,3.1,3.1,0,0,0-.114-1.639A3.43,3.43,0,0,1,5088.379,1315.23Z" transform="translate(-5056.132 -1288.949)" fill="#0a3c5f"/>
      <path id="Path_3848" data-name="Path 3848" d="M5094.259,1307.85c-.086.536-.169,1.043-.228,1.375a20.112,20.112,0,0,0-.35,2.7,2.34,2.34,0,0,1,1.707-1.875A1.917,1.917,0,0,0,5094.259,1307.85Z" transform="translate(-5059.84 -1283.918)" fill="#63c0c3"/>
      <path id="Path_3849" data-name="Path 3849" d="M5049.176,1322.561a4.8,4.8,0,0,1-1.2,2.821c-2.512,2.19-11.352,2.87-14.7,6.07-.806,2.1-1.139,3.325-1.139,3.325l3.3.3s2.495-1.223,4.671-2.034c3.28-1.223,5.519-1.472,7.759-3.568a8.109,8.109,0,0,0,2.461-6.219A9.972,9.972,0,0,0,5049.176,1322.561Z" transform="translate(-5016.798 -1294.207)" fill="#232c54"/>
      <path id="Path_3850" data-name="Path 3850" d="M5074.012,1366.3l-.1.338a.809.809,0,0,0,.651,1.028l1.206.188a.809.809,0,0,0,.9-.575l.088-.3a.809.809,0,0,0-.588-1.011,11.579,11.579,0,0,0-1.292-.24A.8.8,0,0,0,5074.012,1366.3Z" transform="translate(-5045.992 -1324.39)" fill="#00666c"/>
    </g>
    <path id="Path_3851" data-name="Path 3851" d="M3851.894,1711.734a5.689,5.689,0,0,1,3.964,2.755.238.238,0,0,0,.44-.069l3.652-17.462-17.284-3.615a.238.238,0,0,1-.088-.428,5.7,5.7,0,1,0-8.05-1.683.238.238,0,0,1-.252.357l-17.285-3.615-3.59,17.165a.238.238,0,0,0,.357.252,5.7,5.7,0,1,1-1.68,8.035.238.238,0,0,0-.429.088l-3.644,17.419,17.843,3.732a.238.238,0,0,0,.23-.388,5.7,5.7,0,1,1,6.982,1.464.238.238,0,0,0,.063.445l17.841,3.732,3.706-17.717a.238.238,0,0,0-.375-.24,5.7,5.7,0,1,1-2.4-10.224Z" transform="translate(-36.887 -419.107)" fill="#abc12d"/>
    <path id="Path_3852" data-name="Path 3852" d="M4871.869,1979.728a35.394,35.394,0,0,1-6.926,1.395,5.8,5.8,0,0,1-4.2-1.244.589.589,0,0,0-.011.875c.445.471.575.351.745.756s-3.944-.038-4.609.685,1.914,3.075,2.814,3.224a5.6,5.6,0,0,0,2.93-.227c.895-.375,1.41-.871,2-1.022s5.458-.269,10.215-.687A3.809,3.809,0,0,0,4871.869,1979.728Z" transform="translate(-770.339 -626.978)" fill="#f7b690"/>
    <path id="Path_3853" data-name="Path 3853" d="M4914.347,1929.144c2.033,1.219,2.46,4.244.474,7.222a28.222,28.222,0,0,1-23.409,13.323,31.1,31.1,0,0,1-.6-6.043,20.694,20.694,0,0,0,11.827-6.172C4907.757,1931.993,4909.478,1926.226,4914.347,1929.144Z" transform="translate(-794.155 -591.053)" fill="#00666b"/>
    <g id="Group_1073" data-name="Group 1073" transform="translate(4044.367 1315.112)">
      <rect id="Rectangle_226" data-name="Rectangle 226" width="43.889" height="43.889" transform="translate(7.479 16.476) rotate(-13.061)" fill="#abc12d"/>
      <circle id="Ellipse_237" data-name="Ellipse 237" cx="5.705" cy="5.705" r="5.705" transform="matrix(0.734, -0.679, 0.679, 0.734, 0, 38.551)" fill="#abc12d"/>
      <circle id="Ellipse_238" data-name="Ellipse 238" cx="5.705" cy="5.705" r="5.705" transform="translate(20.7 10.895) rotate(-72.736)" fill="#abc12d"/>
    </g>
    <g id="Group_1078" data-name="Group 1078" transform="translate(4086.647 1324.885)">
      <g id="Group_1077" data-name="Group 1077" transform="translate(0 0)">
        <path id="Path_3854" data-name="Path 3854" d="M4908.761,2146.333l-1.734,3.728-4.246-1.357,1.831-5.732Z" transform="translate(-4889.175 -2066.03)" fill="#f39f85"/>
        <path id="Path_3855" data-name="Path 3855" d="M4889.644,2165.813l-.28-3.383.6-1.228-5.2-1.422-.722,2.1-4.989,2.068s-1.465.733-1.465,1.864h7.9l1.734-.883v.883Z" transform="translate(-4871.556 -2077.784)" fill="#212b53"/>
        <path id="Path_3856" data-name="Path 3856" d="M5132.938,2016.152l1.114-1.709,3.646,1.811-3.038,4.215Z" transform="translate(-5050.139 -1976.141)" fill="#f39f85"/>
        <path id="Path_3857" data-name="Path 3857" d="M5133.7,2001.733l4.532,2.317,1.215-2.177,6.607-3.874a3.027,3.027,0,0,0-.126-1.215c-.19-.279-1.873-.747-4.443-.532a14.029,14.029,0,0,0-4.886,1.481l-.038-.772-2.342.393.405,3.316Z" transform="translate(-5050.669 -1963.381)" fill="#212b53"/>
        <g id="Group_1074" data-name="Group 1074" transform="translate(83.547 32.816)">
          <path id="Path_3858" data-name="Path 3858" d="M5143.339,1997.733a14.02,14.02,0,0,1,4.886-1.481c2.57-.215,4.254.253,4.443.532a1.058,1.058,0,0,1,.119.456,12.707,12.707,0,0,0-4.9-.279,12.533,12.533,0,0,0-4.507,1.279Z" transform="translate(-5140.96 -1996.197)" fill="#053c5e"/>
          <path id="Path_3859" data-name="Path 3859" d="M5135.423,1999.13l2.341-.392.039.772-2.3.278Z" transform="translate(-5135.423 -1997.974)" fill="#053c5e"/>
        </g>
        <g id="Group_1075" data-name="Group 1075" transform="translate(6.031 87.396)">
          <path id="Path_3860" data-name="Path 3860" d="M4885.484,2178.377h-7.9a1.427,1.427,0,0,1,.155-.633l8.881.053Z" transform="translate(-4877.587 -2177.744)" fill="#053c5e"/>
          <path id="Path_3861" data-name="Path 3861" d="M4909.627,2177.934l2.377.014.046.562h-2.424Z" transform="translate(-4899.995 -2177.876)" fill="#053c5e"/>
        </g>
        <path id="Path_3862" data-name="Path 3862" d="M5015.461,1974.04s-1.237,3.376-6.59,2.99-7.741-5.824-14.532-5.623-6.762-8.23-6.762-8.23l17.352,1.123,8.288,3.453S5016.469,1970.658,5015.461,1974.04Z" transform="translate(-4948.479 -1940.288)" fill="#00666b"/>
        <path id="Path_3863" data-name="Path 3863" d="M4960.5,1890.674a4.519,4.519,0,0,1,4.737-3.627c3.774.123,3.281,3.479,7.487,3.528s5.1-3.664,9.5-3.442c3.416.172,4.894,2.114,4.947,5.849.062,4.291-1.95,5.425-3.9,5.425-3.1,0-3.051-2.237-6.268-2.237s-4.5,1.646-6.474,1.6c-4.812-.123-5.391-5.982-8.919-5.427A4.428,4.428,0,0,0,4960.5,1890.674Z" transform="translate(-4929.544 -1887.044)" fill="#232a53"/>
        <path id="Path_3864" data-name="Path 3864" d="M4958.646,1900.816s1,.007,1.04-.4c.061-.68-.466-1.971-1.276-2.153-.618-.139-.9.608-.9.608Z" transform="translate(-4927.451 -1894.877)" fill="#63c0c3"/>
        <path id="Path_3865" data-name="Path 3865" d="M4951.044,1910.388l1.75,4.851-3.148.588-1.088-2.979-1.25-2.857Z" transform="translate(-4920.316 -1903.091)" fill="#f39f85"/>
        <path id="Path_3866" data-name="Path 3866" d="M4943.616,1907.833a5.738,5.738,0,0,1,.156,1.7c-.1.635-.48,1.324-1.054,1.345s-1.959-1.25-2.567-2.932-.825-2.851-.507-3.378S4942.879,1904.5,4943.616,1907.833Z" transform="translate(-4914.854 -1899.172)" fill="#f7b690"/>
        <path id="Path_3867" data-name="Path 3867" d="M4945.051,1897.4c.73.966,1.041,3.1-.189,3.868a2.452,2.452,0,0,1-2.263.28s-.216-.635-.412-.378a.727.727,0,0,1-1.115-.135c-.365-.459-.108-.905-.824-1.169s-1.561-.317-1.621-.757a3.561,3.561,0,0,1,3.182-3.033A3.212,3.212,0,0,1,4945.051,1897.4Z" transform="translate(-4914.242 -1893.337)" fill="#232a53"/>
        <path id="Path_3868" data-name="Path 3868" d="M4939.866,1982.432s3.795,6.154,1.464,12.456-13.213,15.366-21.088,19.51c.844,7.079-8.048,15.755-9.645,19.985l-.255.57-5.947-2.694.289-1.07s4.23-20.072,5.05-22.057,12.875-16.439,13.021-22.4C4928.926,1985.241,4939.866,1982.432,4939.866,1982.432Z" transform="translate(-4890.304 -1953.754)" fill="#0a3c5f"/>
        <path id="Path_3869" data-name="Path 3869" d="M5019.78,1996.83s-1.424-1.511-4.749-4.4c-2.417,5.309-15.107,10.489-16.834,15.021-5.567-8.935-11.828-16.963-11.828-16.963s-.984-5.617-3.793-8.053c-5.184,1.322-17.112,4.3-17.112,4.3a56.411,56.411,0,0,0,31.093,34.182C5005.017,2017.462,5019.78,1996.83,5019.78,1996.83Z" transform="translate(-4933.013 -1953.754)" fill="#222c53"/>
        <path id="Path_3870" data-name="Path 3870" d="M4952.309,1927.231c-3.844.732-4,4.073-3.471,6.336s4.331,8.314,4.844,14.487c4.98-1.117,17.112-4.3,17.112-4.3S4960.94,1925.588,4952.309,1927.231Z" transform="translate(-4921.231 -1915.076)" fill="#d4eaec"/>
        <path id="Path_3871" data-name="Path 3871" d="M4948.753,1934.344s3.892,6.074,9.935,7.2,15.856-1.381,21.064,0,8.892,3.684,8.057,7.094c1.266-3.813-.863-8.3-5.985-10.374s-9.755-1.525-13.812-3.712-11.834-8.5-16.176-7.616C4947.14,1927.885,4947.724,1931.871,4948.753,1934.344Z" transform="translate(-4920.827 -1914.881)" fill="#62c0c3"/>
        <path id="Path_3872" data-name="Path 3872" d="M4949.937,1910.6s.061-.54.459-.6c.334-.051,1.081.2.824,1.533-.128.669-.547.662-.891.243A2.429,2.429,0,0,1,4949.937,1910.6Z" transform="translate(-4922.155 -1903.091)" fill="#f7b690"/>
        <path id="Path_3873" data-name="Path 3873" d="M4871.835,1924.494a33.612,33.612,0,0,1-6.576-1.324,5.509,5.509,0,0,1-3.223-2.633.558.558,0,0,0-.331.762c.216.576.374.518.374.935s-3.439-1.482-4.288-1.093.547,3.4,1.281,3.856a5.324,5.324,0,0,0,2.647.878c.921,0,1.554-.245,2.13-.158s4.877,1.77,9.194,3.151A3.616,3.616,0,0,0,4871.835,1924.494Z" transform="translate(-4857.526 -1910.468)" fill="#f7b690"/>
        <path id="Path_3874" data-name="Path 3874" d="M4910.256,1930.037c.8,2.87-1.6,7.352-13.684,5.784-10.407-1.35-12.273-3.424-12.273-3.424l1.021-4.921a47.67,47.67,0,0,0,12.935,1.468C4904.284,1928.569,4909.033,1925.634,4910.256,1930.037Z" transform="translate(-4876.251 -1915.32)" fill="#62c0c3"/>
        <g id="Group_1076" data-name="Group 1076" transform="translate(28.799 16.476)" opacity="0.52">
          <path id="Path_3875" data-name="Path 3875" d="M4953.351,1945.93c.048-.009,4.8-.919,5.319-4.054l-.17-.028c-.5,3.017-5.134,3.9-5.181,3.913Z" transform="translate(-4953.319 -1941.847)" fill="#fff"/>
        </g>
      </g>
    </g>
    <path id="Path_3876" data-name="Path 3876" d="M4012.118,1445.118H3877.84s-7.282-9.212,0-15.411c4.018-3.421,8.764-3.067,12.21-2.062a4.019,4.019,0,0,0,4.979-3.147c.817-3.787,3.333-8.743,10.561-11.672,7.111-2.881,11.609,1.518,14.212,6.038a2.019,2.019,0,0,0,3.652-.372c2.254-7.136,10.11-16.6,35.921-16.6,32.829,0,29.181,17.452,26.247,24.706a1.672,1.672,0,0,0,1.9,2.28c5.064-1.082,14.463-2.485,18.678.824C4012.118,1434.354,4012.118,1445.118,4012.118,1445.118Z" transform="translate(-83.462 -222.866)" fill="url(#linear-gradient-2)"/>
    <path id="Path_3877" data-name="Path 3877" d="M4576.05,1207.275c-3.26,14.166,30.147,15.987,43.913,16.141a70.244,70.244,0,0,0,11.354-1.078c20.7-3.151,37.123-8.561,33.548-16.99-4.611-10.875-18.462-3.293-18.462-3.293s1.739-8.21-21.83-13.633-23.474,12.647-23.474,12.647S4580.145,1189.479,4576.05,1207.275Z" transform="translate(-573.87 -72.86)" fill="url(#linear-gradient-3)"/>
    <g id="Group_1085" data-name="Group 1085" transform="translate(4205.91 1250.426)">
      <g id="Group_1079" data-name="Group 1079" transform="translate(0 0)">
        <path id="Path_3878" data-name="Path 3878" d="M5273.529,1650.02l2.332,4.584-4.9-1.117-16.744-5.276Z" transform="translate(-5254.221 -1645.554)" fill="#afd8c7"/>
        <path id="Path_3879" data-name="Path 3879" d="M5306.855,1665.864l-8.315-.517,2.038-1.036Z" transform="translate(-5285.216 -1656.814)" fill="#abc12d"/>
        <path id="Path_3880" data-name="Path 3880" d="M5273.529,1643.841l1.456-4.466-20.764,2.656Z" transform="translate(-5254.221 -1639.375)" fill="url(#linear-gradient-4)"/>
        <path id="Path_3881" data-name="Path 3881" d="M5254.221,1648.211l16.744,5.276-2.5,6.437Z" transform="translate(-5254.221 -1645.554)" fill="url(#linear-gradient-4)"/>
      </g>
      <g id="Group_1084" data-name="Group 1084" transform="translate(2.382 11.778)">
        <g id="Group_1080" data-name="Group 1080" transform="translate(15.266)">
          <path id="Path_3882" data-name="Path 3882" d="M5315.077,1680.436a.387.387,0,0,0,.118-.092.392.392,0,0,0-.039-.552,11.027,11.027,0,0,0-1.646-1.186.391.391,0,1,0-.4.674,10.159,10.159,0,0,1,1.528,1.1A.391.391,0,0,0,5315.077,1680.436Z" transform="translate(-5312.922 -1678.552)" fill="#abc12d"/>
        </g>
        <g id="Group_1082" data-name="Group 1082" transform="translate(0 2.878)">
          <g id="Group_1081" data-name="Group 1081">
            <path id="Path_3883" data-name="Path 3883" d="M5273.48,1729.879a.391.391,0,0,1,.139-.535,11.013,11.013,0,0,0,2.868-2.487.391.391,0,0,1,.6.5,11.786,11.786,0,0,1-3.074,2.662l-.022.012A.391.391,0,0,1,5273.48,1729.879Zm4.458-4.386a.39.39,0,0,1-.147-.533,13.969,13.969,0,0,0,1.418-3.561.392.392,0,0,1,.76.188,14.777,14.777,0,0,1-1.5,3.759.381.381,0,0,1-.162.155A.39.39,0,0,1,5277.938,1725.493Zm1.992-5.948a.392.392,0,0,1-.363-.418l.011-.176a18.02,18.02,0,0,0-.192-3.677.391.391,0,0,1,.773-.117,18.907,18.907,0,0,1,.2,3.836l-.012.19a.39.39,0,0,1-.213.321A.4.4,0,0,1,5279.929,1719.545Zm-.542-6.269a.391.391,0,0,1-.478-.278,28.468,28.468,0,0,0-1.27-3.683.391.391,0,0,1,.722-.3,29.243,29.243,0,0,1,1.3,3.784.392.392,0,0,1-.2.449A.411.411,0,0,1,5279.387,1713.277Zm-2.2-5.917a.392.392,0,0,1-.523-.179l-.146-.3a13.259,13.259,0,0,1-1.265.422.391.391,0,0,1-.21-.754q.568-.157,1.116-.368c-.406-.778-.854-1.586-1.359-2.457a.391.391,0,0,1,.676-.392c.524.9.987,1.739,1.407,2.546a11.869,11.869,0,0,0,1.628-.909.391.391,0,1,1,.435.651,12.624,12.624,0,0,1-1.708.956c.044.085.086.171.128.257a.391.391,0,0,1-.174.521Zm3.09-3.291a.39.39,0,0,1-.008-.553,9.82,9.82,0,0,0,2.075-3.157.391.391,0,1,1,.724.3,10.588,10.588,0,0,1-2.239,3.406.4.4,0,0,1-.1.076A.391.391,0,0,1,5280.278,1704.068Zm-7.427,3.673a12.222,12.222,0,0,1-4.05-.317.391.391,0,0,1,.191-.758,11.435,11.435,0,0,0,3.793.3.391.391,0,0,1,.066.78Zm10.442-9.123a.392.392,0,0,1-.318-.453,11.84,11.84,0,0,0,.036-3.809.391.391,0,0,1,.773-.115,12.652,12.652,0,0,1-.038,4.06.392.392,0,0,1-.453.318Zm-16.788,7.943a10.2,10.2,0,0,1-.918-.532,8.342,8.342,0,0,1-2.211-2.112.391.391,0,1,1,.635-.457,7.585,7.585,0,0,0,2,1.913,9.558,9.558,0,0,0,.85.491.391.391,0,0,1-.356.7Zm7.076-4.845a14.525,14.525,0,0,0-2.417-2.98.391.391,0,0,1,.524-.581,15.281,15.281,0,0,1,2.55,3.138.391.391,0,0,1-.117.541l-.035.02A.391.391,0,0,1,5273.581,1701.716Zm9.382-9.348a.392.392,0,0,1-.5-.243,12.48,12.48,0,0,0-.68-1.607,11.946,11.946,0,0,0-1.1-1.766.391.391,0,0,1,.625-.47,12.693,12.693,0,0,1,1.172,1.881,13.217,13.217,0,0,1,.723,1.707.391.391,0,0,1-.192.475A.437.437,0,0,1,5282.963,1692.369Zm-20.195,9.575a.391.391,0,0,1-.474-.285,4.343,4.343,0,0,1,.32-3.119,3.978,3.978,0,0,1,.668-.919.391.391,0,1,1,.561.545,3.207,3.207,0,0,0-.537.738,3.531,3.531,0,0,0-.253,2.566.391.391,0,0,1-.2.443A.377.377,0,0,1,5262.768,1701.943Zm6.539-4.467a5.6,5.6,0,0,0-3.6-.339.391.391,0,0,1-.192-.759,6.312,6.312,0,0,1,4.121.388.391.391,0,0,1,.191.519.384.384,0,0,1-.177.184A.391.391,0,0,1,5269.307,1697.476Z" transform="translate(-5262.145 -1688.126)" fill="#abc12d"/>
          </g>
        </g>
        <g id="Group_1083" data-name="Group 1083" transform="translate(7.149 44.997)">
          <path id="Path_3884" data-name="Path 3884" d="M5288.418,1828.963a.391.391,0,0,0-.284-.725,8.381,8.381,0,0,1-1.839.31.391.391,0,1,0,.042.78,9.186,9.186,0,0,0,2.011-.338A.416.416,0,0,0,5288.418,1828.963Z" transform="translate(-5285.925 -1828.223)" fill="#abc12d"/>
        </g>
      </g>
    </g>
    <g id="Group_1088" data-name="Group 1088" transform="translate(3928.934 1098.512)">
      <g id="Group_1086" data-name="Group 1086" transform="translate(63.989)">
        <path id="Path_3885" data-name="Path 3885" d="M4588.889,1142.929l-13.539-7.472-6.911-1.383-5.223.768Z" transform="translate(-4557.973 -1134.074)" fill="url(#linear-gradient-4)"/>
        <path id="Path_3886" data-name="Path 3886" d="M4588.889,1144.715l-25.352-6.517-.321-1.57" transform="translate(-4557.973 -1135.86)" fill="#afd8c7"/>
        <path id="Path_3887" data-name="Path 3887" d="M4561.878,1156.318l.033.053,1.063,3.936,24.915-1.82Z" transform="translate(-4557.037 -1149.63)" fill="#abc12d"/>
        <path id="Path_3888" data-name="Path 3888" d="M4545.776,1141.817l3.617-2.936,27.134,7.367-23.358-.695Z" transform="translate(-4545.776 -1137.436)" fill="url(#linear-gradient-4)"/>
      </g>
      <g id="Group_1087" data-name="Group 1087" transform="translate(0 1.252)">
        <path id="Path_3889" data-name="Path 3889" d="M4353.376,1313.159a19.011,19.011,0,0,0,2.439-1.059.369.369,0,0,1,.339.654,19.779,19.779,0,0,1-2.534,1.1q-.467.165-.94.306a.365.365,0,0,1-.325-.056.359.359,0,0,1-.133-.19.368.368,0,0,1,.247-.458Q4352.924,1313.317,4353.376,1313.159Z" transform="translate(-4346.413 -1259.802)" fill="#abc12d"/>
        <path id="Path_3890" data-name="Path 3890" d="M4520.17,1139.509c1.149.148,2.346.337,3.658.579a.368.368,0,0,1-.134.725c-1.3-.24-2.482-.427-3.618-.573a.372.372,0,0,1-.172-.069.369.369,0,0,1,.266-.661Z" transform="translate(-4463.59 -1139.125)" fill="#abc12d"/>
        <path id="Path_3891" data-name="Path 3891" d="M4500.355,1138.905a.369.369,0,0,1,.216-.664c1.183-.01,2.432.039,3.714.146a.368.368,0,0,1-.062.734c-1.26-.105-2.486-.154-3.646-.144A.369.369,0,0,1,4500.355,1138.905Z" transform="translate(-4449.917 -1138.239)" fill="#abc12d"/>
        <path id="Path_3892" data-name="Path 3892" d="M4372.838,1300.7a.363.363,0,0,1,.521.007.368.368,0,0,1-.007.521,20.514,20.514,0,0,1-2.907,2.361.367.367,0,0,1-.424-.01.356.356,0,0,1-.087-.091.368.368,0,0,1,.1-.511A19.843,19.843,0,0,0,4372.838,1300.7Z" transform="translate(-4358.767 -1251.783)" fill="#abc12d"/>
        <path id="Path_3893" data-name="Path 3893" d="M4384.474,1288.752a.367.367,0,0,1-.051-.519c.208-.255.41-.513.606-.777a19.141,19.141,0,0,0,1.415-2.213.368.368,0,0,1,.5-.147.373.373,0,0,1,.147.5,19.861,19.861,0,0,1-1.47,2.3q-.3.411-.628.805a.368.368,0,0,1-.5.063Z" transform="translate(-4368.885 -1240.914)" fill="#abc12d"/>
        <path id="Path_3894" data-name="Path 3894" d="M4394.568,1270.988a.37.37,0,0,1-.2-.481,25.28,25.28,0,0,0,1.12-3.448.368.368,0,1,1,.714.18,25.682,25.682,0,0,1-1.153,3.548A.369.369,0,0,1,4394.568,1270.988Z" transform="translate(-4375.879 -1228.136)" fill="#abc12d"/>
        <path id="Path_3895" data-name="Path 3895" d="M4421.059,1174.82q-.46.562-.892,1.144c-.435.586-.849,1.193-1.233,1.8a.368.368,0,0,1-.507.116l-.024-.016a.367.367,0,0,1-.092-.491c.393-.627.818-1.25,1.264-1.852q.442-.6.915-1.173a.351.351,0,0,1,.519-.051A.368.368,0,0,1,4421.059,1174.82Z" transform="translate(-4392.604 -1163.395)" fill="#abc12d"/>
        <path id="Path_3896" data-name="Path 3896" d="M4411.847,1191.084a26.762,26.762,0,0,0-1.46,3.323.368.368,0,0,1-.471.222.387.387,0,0,1-.095-.051.368.368,0,0,1-.127-.42,27.473,27.473,0,0,1,1.5-3.416.369.369,0,1,1,.653.342Z" transform="translate(-4386.603 -1174.82)" fill="#abc12d"/>
        <path id="Path_3897" data-name="Path 3897" d="M4433.585,1161.06a30.114,30.114,0,0,0-2.667,2.473.368.368,0,0,1-.485.042.414.414,0,0,1-.036-.03.369.369,0,0,1-.012-.521,30.944,30.944,0,0,1,2.732-2.534.369.369,0,0,1,.468.569Z" transform="translate(-4401.016 -1153.742)" fill="#abc12d"/>
        <path id="Path_3898" data-name="Path 3898" d="M4462.647,1144.042a.367.367,0,0,1-.368-.041.368.368,0,0,1,.07-.633,29.1,29.1,0,0,1,3.5-1.288.368.368,0,1,1,.209.706A28.518,28.518,0,0,0,4462.647,1144.042Z" transform="translate(-4423.288 -1140.915)" fill="#abc12d"/>
        <path id="Path_3899" data-name="Path 3899" d="M4402.728,1232.409a.368.368,0,0,1-.323-.408l.052-.464c.122-1.068.243-2.137.384-3.2a.368.368,0,0,1,.73.1c-.14,1.06-.261,2.125-.383,3.188l-.053.464A.368.368,0,0,1,4402.728,1232.409Z" transform="translate(-4381.517 -1201.026)" fill="#abc12d"/>
        <path id="Path_3900" data-name="Path 3900" d="M4445.688,1152.125a.368.368,0,0,1-.431,0,.383.383,0,0,1-.082-.084.369.369,0,0,1,.089-.513,30.686,30.686,0,0,1,3.17-1.958.369.369,0,1,1,.348.65A29.793,29.793,0,0,0,4445.688,1152.125Z" transform="translate(-4411.384 -1146.13)" fill="#abc12d"/>
        <path id="Path_3901" data-name="Path 3901" d="M4400.657,1247.488a.367.367,0,0,1,.319.412c-.181,1.434-.359,2.6-.558,3.664a.368.368,0,0,1-.43.293.356.356,0,0,1-.151-.066.37.37,0,0,1-.144-.364c.2-1.05.374-2.2.553-3.62A.368.368,0,0,1,4400.657,1247.488Z" transform="translate(-4379.618 -1214.642)" fill="#abc12d"/>
        <path id="Path_3902" data-name="Path 3902" d="M4336.882,1318.412a.368.368,0,0,1,.142.723,29.8,29.8,0,0,1-3.695.477.368.368,0,1,1-.052-.735A29.256,29.256,0,0,0,4336.882,1318.412Z" transform="translate(-4332.935 -1264.24)" fill="#abc12d"/>
        <path id="Path_3903" data-name="Path 3903" d="M4406.163,1208.782a.369.369,0,0,1,.26.451c-.29,1.083-.539,2.25-.759,3.565a.368.368,0,1,1-.726-.121c.224-1.34.478-2.529.774-3.635A.368.368,0,0,1,4406.163,1208.782Z" transform="translate(-4383.287 -1187.565)" fill="#abc12d"/>
        <path id="Path_3904" data-name="Path 3904" d="M4483.438,1138.676q.645-.077,1.292-.126a.369.369,0,0,1,.055.735q-.631.047-1.261.122c-.778.093-1.563.222-2.336.385a.367.367,0,0,1-.295-.064.36.36,0,0,1-.141-.219.367.367,0,0,1,.284-.437C4481.83,1138.9,4482.637,1138.771,4483.438,1138.676Z" transform="translate(-4436.307 -1138.456)" fill="#abc12d"/>
      </g>
    </g>
  </g>
</svg>
